<svg width="28" height="40" viewBox="0 0 28 40" fill="none" xmlns="http://www.w3.org/2000/svg">
<path d="M27.2796 18.9152C27.1241 18.7399 26.9097 18.697 26.6946 18.649C24.761 18.2229 22.9422 17.4913 21.1946 16.5699C20.9384 16.4405 20.7411 16.2181 20.6431 15.9481C20.4977 15.5743 20.3866 15.1962 20.2797 14.8537V14.8493C20.1569 14.4668 20.0327 14.1315 19.8547 13.9039L16.8027 7.11598C15.2768 3.72202 15.8777 4.80049 13.5532 0.498225C13.2305 -0.0988267 12.7771 -0.162096 12.3113 0.323691C11.2029 1.47465 10.0984 2.6319 8.99779 3.79547L8.38959 4.43542L8.4419 4.50815L11.2301 3.43985C11.2083 3.52494 11.161 3.70311 11.0993 3.92637C10.5637 5.86006 8.22536 13.6566 7.91 14.6166C7.86203 14.7358 7.86203 14.869 7.91 14.9882C7.98702 15.1424 8.16069 15.2013 8.229 15.2231C12.6616 16.6412 13.6789 16.7146 13.6898 16.7154C14.9505 16.887 16.212 17.0062 17.4865 16.9393C18.1855 16.8926 18.8815 16.8079 19.5713 16.6855C19.5328 16.7524 19.5248 16.7866 19.5051 16.7961C19.407 16.8435 19.3063 16.8855 19.2036 16.9219C15.3058 18.2309 11.4473 18.1262 7.63532 16.5794C7.37664 16.4739 7.16591 16.4528 6.90141 16.5597C5.78745 17.0106 4.66042 17.4273 3.51304 17.7858C2.59044 18.0838 1.64999 18.3233 0.697275 18.5029C0.301978 18.5756 0.0498301 18.7858 0.00477787 19.1966C-0.0380944 19.585 0.213326 19.7588 0.527239 19.8824C0.641323 19.9275 0.751774 19.9828 0.865131 20.0279C7.47134 22.6982 14.2628 23.3137 21.2397 21.8743C23.2062 21.4621 25.1249 20.8472 26.9649 20.0395C27.483 19.8126 27.6204 19.2985 27.2796 18.9152Z" fill="url(#paint0_linear_201_2395)"/>
<path d="M14.8147 35.9025H14.8038C14.8038 34.7338 14.7646 33.563 14.8169 32.3972C14.8547 31.5566 14.3649 31.5427 13.7691 31.5551C13.1732 31.5675 12.6253 31.4824 12.6471 32.3987C12.6951 34.4349 12.6602 36.4762 12.6602 38.5154C12.6602 40.0716 12.6602 40.06 14.221 39.9647C14.657 39.9378 14.8336 39.7902 14.8234 39.3335C14.798 38.1932 14.8147 37.0464 14.8147 35.9025Z" fill="url(#paint1_linear_201_2395)"/>
<path d="M4.33203 28.7211V34.8618C4.96325 34.8616 5.56856 34.6106 6.01483 34.1638C6.46111 33.717 6.71181 33.1112 6.71181 32.4794V26.3395C6.08065 26.3395 5.47535 26.5904 5.02905 27.0371C4.58276 27.4837 4.33203 28.0895 4.33203 28.7211Z" fill="url(#paint2_linear_201_2395)"/>
<path d="M8.4375 31.8482V37.9882C9.06872 37.9882 9.6741 37.7373 10.1205 37.2907C10.5669 36.844 10.8178 36.2382 10.818 35.6065V29.4666C10.1868 29.4666 9.5814 29.7175 9.13499 30.1641C8.68858 30.6107 8.43769 31.2165 8.4375 31.8482Z" fill="url(#paint3_linear_201_2395)"/>
<path d="M20.8223 26.3395V32.4794C20.8223 33.1113 21.0731 33.7173 21.5195 34.164C21.9659 34.6108 22.5714 34.8618 23.2028 34.8618V28.7211C23.2026 28.0894 22.9517 27.4836 22.5053 27.037C22.0589 26.5904 21.4535 26.3395 20.8223 26.3395Z" fill="url(#paint4_linear_201_2395)"/>
<path d="M16.7168 29.4666V35.6072C16.717 36.239 16.9679 36.8447 17.4143 37.2914C17.8607 37.738 18.4661 37.9889 19.0973 37.9889V31.8482C19.0971 31.2165 18.8462 30.6107 18.3998 30.1641C17.9534 29.7175 17.348 29.4666 16.7168 29.4666Z" fill="url(#paint5_linear_201_2395)"/>
<defs>
<linearGradient id="paint0_linear_201_2395" x1="22.4335" y1="40.8847" x2="9.5805" y2="9.08365" gradientUnits="userSpaceOnUse">
<stop offset="0.17" stop-color="#2C89FF"/>
<stop offset="1" stop-color="#70FEDC"/>
</linearGradient>
<linearGradient id="paint1_linear_201_2395" x1="16.7316" y1="43.19" x2="3.87785" y2="11.3882" gradientUnits="userSpaceOnUse">
<stop offset="0.17" stop-color="#2C89FF"/>
<stop offset="1" stop-color="#70FEDC"/>
</linearGradient>
<linearGradient id="paint2_linear_201_2395" x1="11.4612" y1="45.3193" x2="-1.39185" y2="13.5183" gradientUnits="userSpaceOnUse">
<stop offset="0.17" stop-color="#2C89FF"/>
<stop offset="1" stop-color="#70FEDC"/>
</linearGradient>
<linearGradient id="paint3_linear_201_2395" x1="13.907" y1="44.331" x2="1.05395" y2="12.53" gradientUnits="userSpaceOnUse">
<stop offset="0.17" stop-color="#2C89FF"/>
<stop offset="1" stop-color="#70FEDC"/>
</linearGradient>
<linearGradient id="paint4_linear_201_2395" x1="25.64" y1="39.5895" x2="12.7862" y2="7.78776" gradientUnits="userSpaceOnUse">
<stop offset="0.17" stop-color="#2C89FF"/>
<stop offset="1" stop-color="#70FEDC"/>
</linearGradient>
<linearGradient id="paint5_linear_201_2395" x1="21.0251" y1="41.4541" x2="8.17207" y2="9.65309" gradientUnits="userSpaceOnUse">
<stop offset="0.17" stop-color="#2C89FF"/>
<stop offset="1" stop-color="#70FEDC"/>
</linearGradient>
</defs>
</svg>
