<svg width="21" height="17" viewBox="0 0 21 17" fill="none" xmlns="http://www.w3.org/2000/svg">
<path d="M1 3.71729V2.35083C1 1.59616 1.61178 0.984375 2.36646 0.984375H18.764C19.5186 0.984375 20.1304 1.59616 20.1304 2.35084V3.71729M1 3.71729L8.72658 8.68438M1 3.71729V13.9657M20.1304 3.71729L12.4039 8.68438M20.1304 3.71729V13.9657M12.4039 8.68438L11.3041 9.39134C10.854 9.6807 10.2764 9.6807 9.82629 9.39134L8.72658 8.68438M12.4039 8.68438L20.1304 13.9657M20.1304 13.9657V14.649C20.1304 15.4036 19.5187 16.0154 18.764 16.0154H2.36646C1.61178 16.0154 1 15.4036 1 14.649V13.9657M8.72658 8.68438L1 13.9657" stroke="#2389FB" stroke-width="1.36646"/>
</svg>
