<svg width="220" height="65" viewBox="0 0 220 65" fill="none" xmlns="http://www.w3.org/2000/svg">
<path d="M63.104 29.5703H59.9302V10H64.2501L69.9219 21.3332L71.7146 25.3933H71.9497L73.6835 21.3332L79.2965 10H83.6165V29.5703H80.4426V17.5652L80.5602 14.7319H80.3251L79.1202 17.5652L73.6835 28.4019H69.8631L64.4265 17.5652L63.2216 14.7319H62.9865L63.104 17.5652V29.5703Z" fill="white"/>
<path d="M100.375 29.5703H97.4653V25.8315L97.2596 25.7439V20.7783C97.2596 19.5709 96.9657 18.7336 96.378 18.2663C95.8098 17.7794 94.8204 17.536 93.4098 17.536C92.058 17.536 91.0491 17.7697 90.3829 18.237C89.7168 18.7044 89.3838 19.4736 89.3838 20.5446V20.6614H86.2393V20.5446C86.2393 19.4346 86.5332 18.4512 87.1209 17.5944C87.7087 16.7182 88.5511 16.0269 89.6483 15.5206C90.765 15.0143 92.0972 14.7611 93.6449 14.7611C95.1927 14.7611 96.4563 15.024 97.4359 15.5498C98.4351 16.0561 99.1698 16.7571 99.64 17.6529C100.13 18.5486 100.375 19.5807 100.375 20.7491V29.5703ZM90.8531 29.8624C89.3446 29.8624 88.1397 29.5313 87.2385 28.8693C86.3569 28.1877 85.916 27.253 85.916 26.0652C85.916 25.3057 86.1022 24.6728 86.4744 24.1666C86.8662 23.6408 87.4148 23.2319 88.1201 22.9398C88.8254 22.6477 89.658 22.4432 90.618 22.3264L97.5535 21.5961V23.4655L91.5291 24.1373C90.7062 24.2347 90.0891 24.41 89.6776 24.6631C89.2858 24.8968 89.0899 25.296 89.0899 25.8607C89.0899 26.4449 89.2956 26.883 89.707 27.1751C90.138 27.4477 90.8042 27.5841 91.7054 27.5841C92.8221 27.5841 93.7919 27.4477 94.6147 27.1751C95.4376 26.883 96.0841 26.4351 96.5543 25.8315C97.0245 25.2278 97.2596 24.4489 97.2596 23.4947L97.671 23.5532V25.9483H97.2596C96.8678 27.1751 96.1135 28.139 94.9968 28.8401C93.8996 29.5216 92.5184 29.8624 90.8531 29.8624Z" fill="white"/>
<path d="M110.878 34.828C109.428 34.828 108.155 34.604 107.058 34.1562C105.96 33.7278 105.098 33.1046 104.471 32.2868C103.864 31.4689 103.56 30.4758 103.56 29.3074H106.705C106.705 30.0084 106.852 30.5731 107.146 31.0016C107.44 31.43 107.9 31.7318 108.527 31.907C109.173 32.1018 110.016 32.1991 111.054 32.1991C112.171 32.1991 113.053 32.0726 113.699 31.8194C114.365 31.5857 114.845 31.1671 115.139 30.5634C115.433 29.9597 115.58 29.1224 115.58 28.0514V19.5515L115.815 19.347V15.0532H118.724V27.8761C118.724 29.4924 118.401 30.8068 117.755 31.8194C117.108 32.8515 116.197 33.6109 115.022 34.0977C113.846 34.5846 112.465 34.828 110.878 34.828ZM109.556 28.2559C108.106 28.2559 106.862 27.9735 105.823 27.4088C104.805 26.8441 104.011 26.0554 103.443 25.0428C102.894 24.0302 102.62 22.8521 102.62 21.5085C102.62 20.1649 102.904 18.9868 103.472 17.9742C104.06 16.9616 104.883 16.1729 105.941 15.6082C107.018 15.0435 108.292 14.7611 109.761 14.7611C111.289 14.7611 112.582 15.1019 113.64 15.7835C114.718 16.4455 115.384 17.4094 115.639 18.6752H116.315L116.138 21.2164H115.58C115.58 20.3985 115.384 19.717 114.992 19.1717C114.6 18.607 114.042 18.1884 113.317 17.9157C112.592 17.6431 111.711 17.5068 110.672 17.5068C109.673 17.5068 108.801 17.6334 108.057 17.8865C107.332 18.1397 106.773 18.5584 106.382 19.1425C106.009 19.7073 105.823 20.4959 105.823 21.5085C105.823 22.5016 106.009 23.2903 106.382 23.8745C106.754 24.4586 107.293 24.8871 107.998 25.1597C108.723 25.4128 109.585 25.5394 110.584 25.5394C112.191 25.5394 113.425 25.2084 114.287 24.5463C115.149 23.8842 115.58 22.9105 115.58 21.6253H116.138V24.4879H115.374C115.12 25.5978 114.502 26.5033 113.523 27.2043C112.543 27.9054 111.221 28.2559 109.556 28.2559Z" fill="white"/>
<path d="M124.835 29.5703H121.661V15.0532H124.835V29.5703ZM124.835 13.3591H121.661V10H124.835V13.3591Z" fill="white"/>
<path d="M135.15 29.8624C133.544 29.8624 132.143 29.5508 130.948 28.9277C129.753 28.2851 128.822 27.3991 128.156 26.2696C127.509 25.1207 127.186 23.8063 127.186 22.3264C127.186 20.8075 127.509 19.4833 128.156 18.3539C128.822 17.2245 129.753 16.3482 130.948 15.725C132.143 15.0824 133.544 14.7611 135.15 14.7611C136.62 14.7611 137.922 15.0143 139.059 15.5206C140.195 16.0269 141.086 16.7376 141.733 17.6529C142.399 18.5486 142.732 19.6099 142.732 20.8367V21.1288H139.588V20.9535C139.588 19.8241 139.196 18.9868 138.412 18.4415C137.629 17.8768 136.522 17.5944 135.091 17.5944C133.446 17.5944 132.241 17.9936 131.477 18.792C130.713 19.5709 130.331 20.7491 130.331 22.3264C130.331 23.8842 130.713 25.0623 131.477 25.8607C132.241 26.6396 133.446 27.0291 135.091 27.0291C136.522 27.0291 137.629 26.7565 138.412 26.2112C139.196 25.6465 139.588 24.7994 139.588 23.67V23.4655H142.732V23.7868C142.732 24.9942 142.399 26.0554 141.733 26.9707C141.086 27.8859 140.195 28.5966 139.059 29.1029C137.922 29.6092 136.62 29.8624 135.15 29.8624Z" fill="white"/>
<path d="M153.275 29.5703H150.101V10H160.328C161.817 10 163.101 10.2239 164.178 10.6718C165.275 11.1197 166.108 11.772 166.676 12.6288C167.264 13.4857 167.558 14.5275 167.558 15.7542C167.558 16.8447 167.323 17.7794 166.852 18.5584C166.402 19.3373 165.736 19.9507 164.854 20.3985C163.992 20.8464 162.944 21.1093 161.71 21.1872V21.3917C162.474 21.5864 163.061 21.9077 163.473 22.3556C163.904 22.784 164.296 23.3097 164.648 23.9329L167.94 29.5703H164.296L161.151 24.1666C160.857 23.6408 160.534 23.2221 160.181 22.9105C159.848 22.5795 159.427 22.3458 158.918 22.2095C158.408 22.0537 157.732 21.9758 156.89 21.9758H153.275V29.5703ZM153.275 12.8333V19.5515H160.299C161.612 19.5515 162.601 19.2983 163.267 18.792C163.933 18.2857 164.266 17.4192 164.266 16.1924C164.266 15.0045 163.933 14.1477 163.267 13.622C162.601 13.0962 161.612 12.8333 160.299 12.8333H153.275Z" fill="white"/>
<path d="M183.658 29.5703H180.749V25.8315L180.543 25.7439V20.7783C180.543 19.5709 180.249 18.7336 179.662 18.2663C179.093 17.7794 178.104 17.536 176.693 17.536C175.342 17.536 174.333 17.7697 173.667 18.237C173 18.7044 172.667 19.4736 172.667 20.5446V20.6614H169.523V20.5446C169.523 19.4346 169.817 18.4512 170.405 17.5944C170.992 16.7182 171.835 16.0269 172.932 15.5206C174.049 15.0143 175.381 14.7611 176.929 14.7611C178.476 14.7611 179.74 15.024 180.72 15.5498C181.719 16.0561 182.453 16.7571 182.924 17.6529C183.413 18.5486 183.658 19.5807 183.658 20.7491V29.5703ZM174.137 29.8624C172.628 29.8624 171.423 29.5313 170.522 28.8693C169.64 28.1877 169.2 27.253 169.2 26.0652C169.2 25.3057 169.386 24.6728 169.758 24.1666C170.15 23.6408 170.698 23.2319 171.404 22.9398C172.109 22.6477 172.942 22.4432 173.902 22.3264L180.837 21.5961V23.4655L174.813 24.1373C173.99 24.2347 173.373 24.41 172.961 24.6631C172.569 24.8968 172.374 25.296 172.374 25.8607C172.374 26.4449 172.579 26.883 172.991 27.1751C173.422 27.4477 174.088 27.5841 174.989 27.5841C176.106 27.5841 177.076 27.4477 177.898 27.1751C178.721 26.883 179.368 26.4351 179.838 25.8315C180.308 25.2278 180.543 24.4489 180.543 23.4947L180.955 23.5532V25.9483H180.543C180.151 27.1751 179.397 28.139 178.28 28.8401C177.183 29.5216 175.802 29.8624 174.137 29.8624Z" fill="white"/>
<path d="M201.744 29.5703H198.57V21.6838C198.57 20.3207 198.237 19.2983 197.571 18.6168C196.924 17.9352 195.837 17.5944 194.309 17.5944C192.722 17.5944 191.546 18.0034 190.782 18.8212C190.038 19.6196 189.665 20.8075 189.665 22.3848L189.107 22.414L188.96 19.5515H189.607C189.763 18.7336 190.077 17.9644 190.547 17.2439C191.037 16.504 191.703 15.91 192.545 15.4622C193.407 14.9948 194.455 14.7611 195.69 14.7611C197.042 14.7611 198.168 15.0338 199.069 15.579C199.97 16.1242 200.637 16.8545 201.068 17.7697C201.518 18.6849 201.744 19.7073 201.744 20.8367V29.5703ZM189.665 29.5703H186.491V15.0532H189.401V19.6099L189.665 19.7559V29.5703Z" fill="white"/>
<path d="M219.971 29.5703H216.238L211.918 23.6408H206.335V20.8075H211.918L216.297 15.0532H220L214.505 22.0343L219.971 29.5703ZM207.745 29.5703H204.572V10H207.745V29.5703Z" fill="white"/>
<path d="M43.8728 30.7922C43.6227 30.5103 43.278 30.4413 42.9321 30.3641C39.8223 29.6787 36.8972 28.502 34.0866 27.02C33.6745 26.8118 33.3572 26.4541 33.1996 26.0199C32.9659 25.4187 32.7871 24.8104 32.6153 24.2595V24.2525C32.4178 23.6373 32.2179 23.098 31.9316 22.7319L27.0233 11.8141C24.5691 6.35521 25.5356 8.08985 21.7971 1.17001C21.2782 0.209698 20.549 0.107934 19.7999 0.889282C18.0173 2.7405 16.241 4.60185 14.4709 6.47334L13.4927 7.50267L13.5768 7.61963L18.0609 5.90137C18.0259 6.03822 17.9499 6.3248 17.8506 6.68389C16.9893 9.79407 13.2286 22.3342 12.7214 23.8782C12.6442 24.07 12.6442 24.2842 12.7214 24.4759C12.8453 24.7239 13.1246 24.8186 13.2344 24.8537C20.3632 27.1346 21.9993 27.2527 22.0168 27.2539C24.0444 27.53 26.0732 27.7218 28.123 27.6142C29.2472 27.5391 30.3664 27.4028 31.4758 27.206C31.4139 27.3136 31.401 27.3685 31.3695 27.3837C31.2117 27.4601 31.0498 27.5276 30.8845 27.5861C24.6159 29.6915 18.4104 29.5231 12.2796 27.0352C11.8636 26.8656 11.5247 26.8317 11.0993 27.0036C9.30777 27.7288 7.4952 28.399 5.64991 28.9757C4.16613 29.455 2.65362 29.8402 1.12141 30.129C0.485661 30.246 0.0801402 30.584 0.00768409 31.2449C-0.0612661 31.8695 0.343086 32.149 0.847941 32.3479C1.03142 32.4204 1.20905 32.5093 1.39136 32.5818C12.0159 36.8769 22.9385 37.8668 34.159 35.5516C37.3218 34.8887 40.4076 33.8997 43.3668 32.6005C44.2001 32.2356 44.4209 31.4086 43.8728 30.7922Z" fill="url(#paint0_linear_265_2174)"/>
<path d="M23.826 58.1149H23.8084C23.8084 56.2352 23.7453 54.3521 23.8295 52.4771C23.8902 51.1249 23.1026 51.1027 22.1443 51.1226C21.186 51.1424 20.3048 51.0056 20.3399 52.4794C20.417 55.7545 20.3609 59.0378 20.3609 62.3176C20.3609 64.8207 20.3609 64.802 22.8712 64.6488C23.5724 64.6055 23.8563 64.368 23.84 63.6335C23.7991 61.7994 23.826 59.9548 23.826 58.1149Z" fill="url(#paint1_linear_265_2174)"/>
<path d="M6.96729 46.5641V56.4409C7.98246 56.4406 8.95595 56.0367 9.67368 55.3182C10.3914 54.5996 10.7946 53.6251 10.7946 52.609V42.7334C9.77953 42.7334 8.80604 43.137 8.08828 43.8554C7.37052 44.5738 6.96729 45.5481 6.96729 46.5641Z" fill="url(#paint2_linear_265_2174)"/>
<path d="M13.5698 51.5944V61.47C14.585 61.47 15.5586 61.0665 16.2766 60.3481C16.9945 59.6297 17.398 58.6554 17.3983 57.6393V47.7637C16.3831 47.7637 15.4095 48.1672 14.6916 48.8856C13.9736 49.604 13.5701 50.5783 13.5698 51.5944Z" fill="url(#paint3_linear_265_2174)"/>
<path d="M33.4878 42.7334V52.609C33.4878 53.6253 33.8912 54.6 34.6091 55.3186C35.3271 56.0372 36.3009 56.4409 37.3163 56.4409V46.5641C37.316 45.548 36.9125 44.5737 36.1945 43.8553C35.4766 43.137 34.503 42.7334 33.4878 42.7334Z" fill="url(#paint4_linear_265_2174)"/>
<path d="M26.8853 47.7637V57.6405C26.8856 58.6565 27.2891 59.6309 28.007 60.3493C28.725 61.0676 29.6986 61.4712 30.7137 61.4712V51.5944C30.7134 50.5783 30.3099 49.604 29.592 48.8856C28.874 48.1672 27.9004 47.7637 26.8853 47.7637Z" fill="url(#paint5_linear_265_2174)"/>
<path d="M62.8202 46.1056H60.7375V44.9059H62.8202C63.1608 44.9059 63.4367 44.8504 63.6477 44.7393C63.8625 44.6245 64.0198 44.469 64.1198 44.2728C64.2198 44.0728 64.2697 43.8451 64.2697 43.5896C64.2697 43.3416 64.2198 43.1102 64.1198 42.8954C64.0198 42.6807 63.8625 42.5066 63.6477 42.3733C63.4367 42.24 63.1608 42.1734 62.8202 42.1734H61.2373V49.0547H59.71V40.9682H62.8202C63.4496 40.9682 63.9865 41.0811 64.4308 41.307C64.8788 41.5291 65.2195 41.8383 65.4527 42.2345C65.6897 42.627 65.8082 43.075 65.8082 43.5785C65.8082 44.1006 65.6897 44.5505 65.4527 44.9281C65.2195 45.3058 64.8788 45.5965 64.4308 45.8001C63.9865 46.0037 63.4496 46.1056 62.8202 46.1056ZM69.5182 49.1658C69.0628 49.1658 68.6536 49.0917 68.2908 48.9436C67.9279 48.7955 67.6187 48.59 67.3633 48.3271C67.1115 48.0605 66.9171 47.7514 66.7801 47.3996C66.6468 47.0442 66.5802 46.6628 66.5802 46.2555V46.0334C66.5802 45.5705 66.6468 45.1503 66.7801 44.7726C66.9134 44.3913 67.1022 44.0636 67.3466 43.7896C67.591 43.5156 67.8835 43.3045 68.2241 43.1564C68.5648 43.0083 68.9406 42.9343 69.3516 42.9343C69.7774 42.9343 70.1532 43.0065 70.479 43.1509C70.8048 43.2916 71.077 43.4915 71.2954 43.7507C71.5139 44.0099 71.6787 44.3209 71.7897 44.6838C71.9008 45.0429 71.9564 45.4409 71.9564 45.8779V46.4943H67.2466V45.4835H70.5123V45.3724C70.5049 45.1392 70.4605 44.9263 70.379 44.7337C70.2976 44.5375 70.1717 44.382 70.0014 44.2672C69.8311 44.1487 69.6108 44.0895 69.3405 44.0895C69.122 44.0895 68.9313 44.1376 68.7684 44.2339C68.6092 44.3265 68.4759 44.4598 68.3685 44.6338C68.2649 44.8041 68.1871 45.0077 68.1353 45.2447C68.0834 45.4817 68.0575 45.7446 68.0575 46.0334V46.2555C68.0575 46.5073 68.0908 46.7406 68.1575 46.9553C68.2278 47.1701 68.3296 47.357 68.4629 47.5163C68.5999 47.6718 68.7629 47.794 68.9517 47.8828C69.1442 47.968 69.3627 48.0106 69.607 48.0106C69.9144 48.0106 70.1921 47.9513 70.4401 47.8328C70.6919 47.7106 70.9104 47.5311 71.0955 47.2941L71.8342 48.0605C71.7083 48.2457 71.538 48.4234 71.3232 48.5937C71.1122 48.764 70.8567 48.9029 70.5568 49.0103C70.2569 49.1139 69.9107 49.1658 69.5182 49.1658ZM74.4223 46.9609L76.6105 43.0454H78.0823V49.0547H76.6105V45.1336L74.4223 49.0547H72.9505V43.0454H74.4223V46.9609ZM76.3384 40.6849H77.4047C77.4047 40.996 77.3288 41.2718 77.177 41.5125C77.0252 41.7531 76.8086 41.942 76.5272 42.079C76.2495 42.2123 75.92 42.2789 75.5386 42.2789C74.9647 42.2789 74.5093 42.1308 74.1724 41.8346C73.8354 41.5384 73.667 41.1552 73.667 40.6849H74.7333C74.7333 40.8812 74.7944 41.0571 74.9166 41.2126C75.0388 41.3681 75.2461 41.4458 75.5386 41.4458C75.8311 41.4458 76.0366 41.3681 76.1551 41.2126C76.2773 41.0571 76.3384 40.8812 76.3384 40.6849ZM82.3311 43.0454V49.0547H80.8593V43.0454H82.3311ZM84.286 43.0454V44.1895H78.9376V43.0454H84.286ZM86.6298 46.9609L88.818 43.0454H90.2898V49.0547H88.818V45.1336L86.6298 49.0547H85.158V43.0454H86.6298V46.9609ZM95.7271 45.5113V46.661H92.6447V45.5113H95.7271ZM93.1056 43.0454V49.0547H91.6339V43.0454H93.1056ZM96.7546 43.0454V49.0547H95.2772V43.0454H96.7546ZM102.125 43.0454V44.2061H99.5648V49.0547H98.0986V43.0454H102.125ZM104.347 46.9609L106.535 43.0454H108.007V49.0547H106.535V45.1336L104.347 49.0547H102.875V43.0454H104.347V46.9609ZM110.723 47.7329L110.712 48.7492C110.712 49.1454 110.613 49.5471 110.417 49.9544C110.221 50.3617 109.967 50.6986 109.656 50.9652L108.879 50.5376C108.979 50.371 109.071 50.2025 109.156 50.0322C109.245 49.8619 109.316 49.6767 109.367 49.4768C109.423 49.2805 109.451 49.0602 109.451 48.8159V47.7329H110.723ZM118.954 45.5113V46.661H115.871V45.5113H118.954ZM116.332 43.0454V49.0547H114.86V43.0454H116.332ZM119.981 43.0454V49.0547H118.504V43.0454H119.981ZM121.053 46.1111V45.9945C121.053 45.5539 121.116 45.1484 121.242 44.7782C121.368 44.4042 121.551 44.0802 121.792 43.8062C122.032 43.5323 122.327 43.3194 122.675 43.1675C123.023 43.012 123.419 42.9343 123.863 42.9343C124.315 42.9343 124.715 43.012 125.063 43.1675C125.415 43.3194 125.711 43.5323 125.951 43.8062C126.192 44.0802 126.375 44.4042 126.501 44.7782C126.627 45.1484 126.69 45.5539 126.69 45.9945V46.1111C126.69 46.548 126.627 46.9535 126.501 47.3274C126.375 47.6977 126.192 48.0217 125.951 48.2994C125.711 48.5733 125.416 48.7862 125.068 48.9381C124.72 49.0899 124.322 49.1658 123.874 49.1658C123.43 49.1658 123.032 49.0899 122.68 48.9381C122.328 48.7862 122.032 48.5733 121.792 48.2994C121.551 48.0217 121.368 47.6977 121.242 47.3274C121.116 46.9535 121.053 46.548 121.053 46.1111ZM122.519 45.9945V46.1111C122.519 46.374 122.545 46.6202 122.597 46.8498C122.649 47.0793 122.728 47.2811 122.836 47.4552C122.943 47.6292 123.082 47.7662 123.252 47.8662C123.426 47.9624 123.634 48.0106 123.874 48.0106C124.111 48.0106 124.315 47.9624 124.485 47.8662C124.656 47.7662 124.794 47.6292 124.902 47.4552C125.013 47.2811 125.094 47.0793 125.146 46.8498C125.198 46.6202 125.224 46.374 125.224 46.1111V45.9945C125.224 45.7353 125.198 45.4928 125.146 45.2669C125.094 45.0374 125.013 44.8356 124.902 44.6615C124.794 44.4838 124.654 44.345 124.48 44.245C124.309 44.1413 124.104 44.0895 123.863 44.0895C123.626 44.0895 123.423 44.1413 123.252 44.245C123.082 44.345 122.943 44.4838 122.836 44.6615C122.728 44.8356 122.649 45.0374 122.597 45.2669C122.545 45.4928 122.519 45.7353 122.519 45.9945ZM130.711 46.511H128.806L128.795 45.5168H130.361C130.595 45.5168 130.785 45.4928 130.933 45.4446C131.081 45.3965 131.191 45.3243 131.261 45.228C131.335 45.1318 131.372 45.0151 131.372 44.8781C131.372 44.7597 131.35 44.6578 131.305 44.5727C131.261 44.4838 131.194 44.4116 131.105 44.3561C131.02 44.3005 130.911 44.2598 130.778 44.2339C130.648 44.2043 130.496 44.1895 130.322 44.1895H129.328V49.0547H127.856V43.0454H130.322C130.711 43.0454 131.061 43.0805 131.372 43.1509C131.683 43.2175 131.948 43.3194 132.166 43.4563C132.385 43.5933 132.551 43.7674 132.666 43.9784C132.785 44.1858 132.844 44.4301 132.844 44.7115C132.844 44.8967 132.803 45.0707 132.722 45.2336C132.64 45.3965 132.52 45.5409 132.361 45.6668C132.201 45.7927 132.005 45.8964 131.772 45.9778C131.539 46.0556 131.272 46.1037 130.972 46.1222L130.711 46.511ZM130.711 49.0547H128.412L128.956 47.9106H130.711C130.926 47.9106 131.104 47.8847 131.244 47.8328C131.385 47.7773 131.489 47.6977 131.555 47.594C131.626 47.4903 131.661 47.3644 131.661 47.2163C131.661 47.0719 131.628 46.9479 131.561 46.8442C131.498 46.7369 131.396 46.6554 131.255 46.5999C131.118 46.5406 130.937 46.511 130.711 46.511H129.195L129.206 45.5168H130.967L131.355 45.9112C131.755 45.9371 132.087 46.0186 132.35 46.1555C132.612 46.2888 132.809 46.4592 132.938 46.6665C133.068 46.8701 133.133 47.0942 133.133 47.3385C133.133 47.6236 133.079 47.8736 132.972 48.0883C132.864 48.3031 132.707 48.4826 132.5 48.627C132.292 48.7677 132.039 48.8751 131.739 48.9492C131.439 49.0195 131.096 49.0547 130.711 49.0547ZM133.938 46.1111V45.9945C133.938 45.5539 134.001 45.1484 134.127 44.7782C134.253 44.4042 134.436 44.0802 134.677 43.8062C134.917 43.5323 135.212 43.3194 135.56 43.1675C135.908 43.012 136.304 42.9343 136.748 42.9343C137.2 42.9343 137.6 43.012 137.948 43.1675C138.3 43.3194 138.596 43.5323 138.837 43.8062C139.077 44.0802 139.26 44.4042 139.386 44.7782C139.512 45.1484 139.575 45.5539 139.575 45.9945V46.1111C139.575 46.548 139.512 46.9535 139.386 47.3274C139.26 47.6977 139.077 48.0217 138.837 48.2994C138.596 48.5733 138.302 48.7862 137.953 48.9381C137.605 49.0899 137.207 49.1658 136.759 49.1658C136.315 49.1658 135.917 49.0899 135.565 48.9381C135.214 48.7862 134.917 48.5733 134.677 48.2994C134.436 48.0217 134.253 47.6977 134.127 47.3274C134.001 46.9535 133.938 46.548 133.938 46.1111ZM135.404 45.9945V46.1111C135.404 46.374 135.43 46.6202 135.482 46.8498C135.534 47.0793 135.613 47.2811 135.721 47.4552C135.828 47.6292 135.967 47.7662 136.137 47.8662C136.311 47.9624 136.519 48.0106 136.759 48.0106C136.996 48.0106 137.2 47.9624 137.37 47.8662C137.541 47.7662 137.679 47.6292 137.787 47.4552C137.898 47.2811 137.979 47.0793 138.031 46.8498C138.083 46.6202 138.109 46.374 138.109 46.1111V45.9945C138.109 45.7353 138.083 45.4928 138.031 45.2669C137.979 45.0374 137.898 44.8356 137.787 44.6615C137.679 44.4838 137.539 44.345 137.365 44.245C137.194 44.1413 136.989 44.0895 136.748 44.0895C136.511 44.0895 136.308 44.1413 136.137 44.245C135.967 44.345 135.828 44.4838 135.721 44.6615C135.613 44.8356 135.534 45.0374 135.482 45.2669C135.43 45.4928 135.404 45.7353 135.404 45.9945ZM143.107 48.0106C143.315 48.0106 143.5 47.9698 143.663 47.8884C143.826 47.8069 143.955 47.6921 144.052 47.544C144.152 47.3959 144.205 47.2237 144.213 47.0275H145.596C145.588 47.4348 145.473 47.7995 145.251 48.1216C145.029 48.4438 144.733 48.6992 144.363 48.8881C143.996 49.0732 143.585 49.1658 143.13 49.1658C142.667 49.1658 142.263 49.088 141.919 48.9325C141.575 48.777 141.288 48.5604 141.058 48.2827C140.832 48.005 140.662 47.6829 140.547 47.3163C140.436 46.9498 140.381 46.5573 140.381 46.1389V45.9612C140.381 45.5428 140.436 45.1503 140.547 44.7837C140.662 44.4172 140.832 44.095 141.058 43.8174C141.288 43.5397 141.575 43.3231 141.919 43.1675C142.263 43.012 142.665 42.9343 143.124 42.9343C143.609 42.9343 144.035 43.0287 144.402 43.2175C144.772 43.4064 145.061 43.6729 145.268 44.0173C145.479 44.3616 145.588 44.7671 145.596 45.2336H144.213C144.205 45.0188 144.157 44.8263 144.068 44.656C143.979 44.4857 143.854 44.3487 143.691 44.245C143.528 44.1413 143.33 44.0895 143.096 44.0895C142.848 44.0895 142.641 44.1413 142.474 44.245C142.311 44.3487 142.184 44.4912 142.091 44.6727C142.002 44.8504 141.939 45.0503 141.902 45.2725C141.869 45.4909 141.852 45.7205 141.852 45.9612V46.1389C141.852 46.3833 141.869 46.6165 141.902 46.8387C141.939 47.0608 142.002 47.2608 142.091 47.4385C142.184 47.6125 142.311 47.7514 142.474 47.855C142.641 47.9587 142.852 48.0106 143.107 48.0106ZM149.489 43.0454V49.0547H148.017V43.0454H149.489ZM151.444 43.0454V44.1895H146.095V43.0454H151.444ZM153.788 46.9609L155.976 43.0454H157.448V49.0547H155.976V45.1336L153.788 49.0547H152.316V43.0454H153.788V46.9609ZM160.164 47.7329L160.152 48.7492C160.152 49.1454 160.054 49.5471 159.858 49.9544C159.662 50.3617 159.408 50.6986 159.097 50.9652L158.32 50.5376C158.42 50.371 158.512 50.2025 158.597 50.0322C158.686 49.8619 158.757 49.6767 158.808 49.4768C158.864 49.2805 158.892 49.0602 158.892 48.8159V47.7329H160.164ZM167.6 47.7773V45.0059C167.6 44.8022 167.565 44.6264 167.495 44.4783C167.424 44.3302 167.317 44.2154 167.173 44.1339C167.028 44.0525 166.845 44.0117 166.623 44.0117C166.427 44.0117 166.254 44.0451 166.106 44.1117C165.962 44.1784 165.851 44.2728 165.773 44.395C165.695 44.5134 165.656 44.6504 165.656 44.8059H164.185C164.185 44.5579 164.244 44.3228 164.362 44.1006C164.481 43.8747 164.649 43.6748 164.868 43.5008C165.09 43.3231 165.355 43.1842 165.662 43.0842C165.973 42.9843 166.321 42.9343 166.706 42.9343C167.161 42.9343 167.567 43.012 167.922 43.1675C168.282 43.3194 168.563 43.5489 168.767 43.8562C168.974 44.1635 169.078 44.5505 169.078 45.017V47.6384C169.078 47.9384 169.096 48.1957 169.133 48.4104C169.174 48.6215 169.233 48.8048 169.311 48.9603V49.0547H167.817C167.746 48.9029 167.693 48.7103 167.656 48.4771C167.619 48.2401 167.6 48.0068 167.6 47.7773ZM167.806 45.3947L167.817 46.2666H166.889C166.66 46.2666 166.458 46.2907 166.284 46.3388C166.11 46.3833 165.967 46.4499 165.856 46.5388C165.745 46.6239 165.662 46.7276 165.606 46.8498C165.551 46.9683 165.523 47.1034 165.523 47.2552C165.523 47.4033 165.556 47.5366 165.623 47.6551C165.693 47.7736 165.793 47.868 165.923 47.9384C166.056 48.005 166.212 48.0383 166.389 48.0383C166.649 48.0383 166.875 47.9865 167.067 47.8828C167.26 47.7754 167.41 47.6458 167.517 47.494C167.624 47.3422 167.682 47.1978 167.689 47.0608L168.111 47.694C168.059 47.8458 167.982 48.0068 167.878 48.1772C167.774 48.3475 167.641 48.5067 167.478 48.6548C167.315 48.8029 167.119 48.9251 166.889 49.0214C166.66 49.1176 166.393 49.1658 166.09 49.1658C165.701 49.1658 165.353 49.088 165.045 48.9325C164.738 48.777 164.496 48.5641 164.318 48.2938C164.14 48.0235 164.051 47.7162 164.051 47.3719C164.051 47.0534 164.111 46.772 164.229 46.5277C164.347 46.2833 164.523 46.0778 164.757 45.9112C164.99 45.7409 165.279 45.6131 165.623 45.528C165.971 45.4391 166.369 45.3947 166.817 45.3947H167.806ZM174.504 45.5113V46.661H171.421V45.5113H174.504ZM171.882 43.0454V49.0547H170.411V43.0454H171.882ZM175.531 43.0454V49.0547H174.054V43.0454H175.531ZM180.174 47.7773V45.0059C180.174 44.8022 180.139 44.6264 180.069 44.4783C179.998 44.3302 179.891 44.2154 179.747 44.1339C179.602 44.0525 179.419 44.0117 179.197 44.0117C179.001 44.0117 178.828 44.0451 178.68 44.1117C178.536 44.1784 178.425 44.2728 178.347 44.395C178.269 44.5134 178.23 44.6504 178.23 44.8059H176.759C176.759 44.5579 176.818 44.3228 176.936 44.1006C177.055 43.8747 177.223 43.6748 177.442 43.5008C177.664 43.3231 177.929 43.1842 178.236 43.0842C178.547 42.9843 178.895 42.9343 179.28 42.9343C179.736 42.9343 180.141 43.012 180.496 43.1675C180.856 43.3194 181.137 43.5489 181.341 43.8562C181.548 44.1635 181.652 44.5505 181.652 45.017V47.6384C181.652 47.9384 181.67 48.1957 181.707 48.4104C181.748 48.6215 181.807 48.8048 181.885 48.9603V49.0547H180.391C180.321 48.9029 180.267 48.7103 180.23 48.4771C180.193 48.2401 180.174 48.0068 180.174 47.7773ZM180.38 45.3947L180.391 46.2666H179.463C179.234 46.2666 179.032 46.2907 178.858 46.3388C178.684 46.3833 178.541 46.4499 178.43 46.5388C178.319 46.6239 178.236 46.7276 178.18 46.8498C178.125 46.9683 178.097 47.1034 178.097 47.2552C178.097 47.4033 178.13 47.5366 178.197 47.6551C178.267 47.7736 178.367 47.868 178.497 47.9384C178.63 48.005 178.786 48.0383 178.964 48.0383C179.223 48.0383 179.449 47.9865 179.641 47.8828C179.834 47.7754 179.984 47.6458 180.091 47.494C180.198 47.3422 180.256 47.1978 180.263 47.0608L180.685 47.694C180.633 47.8458 180.556 48.0068 180.452 48.1772C180.348 48.3475 180.215 48.5067 180.052 48.6548C179.889 48.8029 179.693 48.9251 179.463 49.0214C179.234 49.1176 178.967 49.1658 178.664 49.1658C178.275 49.1658 177.927 49.088 177.619 48.9325C177.312 48.777 177.07 48.5641 176.892 48.2938C176.714 48.0235 176.625 47.7162 176.625 47.3719C176.625 47.0534 176.685 46.772 176.803 46.5277C176.922 46.2833 177.097 46.0778 177.331 45.9112C177.564 45.7409 177.853 45.6131 178.197 45.528C178.545 45.4391 178.943 45.3947 179.391 45.3947H180.38ZM187.011 43.0454V44.2061H184.068V43.0454H187.011ZM188.116 43.0454V49.0547H186.65V43.0454H188.116ZM183.701 43.0454H185.151L184.99 46.0445C184.964 46.4851 184.917 46.872 184.851 47.2052C184.784 47.5348 184.695 47.818 184.584 48.055C184.473 48.2882 184.338 48.4789 184.179 48.627C184.019 48.7751 183.834 48.8844 183.623 48.9547C183.416 49.0214 183.183 49.0547 182.923 49.0547H182.474L182.457 47.8717L182.668 47.855C182.798 47.8439 182.909 47.8088 183.001 47.7495C183.097 47.6903 183.179 47.6051 183.246 47.494C183.316 47.383 183.373 47.2404 183.418 47.0664C183.466 46.8887 183.503 46.6813 183.529 46.4443C183.558 46.2037 183.579 45.926 183.59 45.6113L183.701 43.0454ZM190.943 46.9609L193.132 43.0454H194.603V49.0547H193.132V45.1336L190.943 49.0547H189.472V43.0454H190.943V46.9609ZM198.852 43.0454V49.0547H197.38V43.0454H198.852ZM200.807 43.0454V44.1895H195.459V43.0454H200.807ZM203.151 46.9609L205.339 43.0454H206.811V49.0547H205.339V45.1336L203.151 49.0547H201.679V43.0454H203.151V46.9609ZM209.71 43.0454V49.0547H208.244V43.0454H209.71ZM213.625 43.0454L210.976 46.7332H209.416L209.232 45.3891H210.315L211.776 43.0454H213.625ZM211.865 49.0547L210.221 46.4777L211.443 45.7112L213.814 49.0547H211.865ZM217.796 47.7773V45.0059C217.796 44.8022 217.761 44.6264 217.691 44.4783C217.621 44.3302 217.513 44.2154 217.369 44.1339C217.224 44.0525 217.041 44.0117 216.819 44.0117C216.623 44.0117 216.451 44.0451 216.302 44.1117C216.158 44.1784 216.047 44.2728 215.969 44.395C215.891 44.5134 215.853 44.6504 215.853 44.8059H214.381C214.381 44.5579 214.44 44.3228 214.559 44.1006C214.677 43.8747 214.845 43.6748 215.064 43.5008C215.286 43.3231 215.551 43.1842 215.858 43.0842C216.169 42.9843 216.517 42.9343 216.902 42.9343C217.358 42.9343 217.763 43.012 218.119 43.1675C218.478 43.3194 218.759 43.5489 218.963 43.8562C219.17 44.1635 219.274 44.5505 219.274 45.017V47.6384C219.274 47.9384 219.292 48.1957 219.329 48.4104C219.37 48.6215 219.429 48.8048 219.507 48.9603V49.0547H218.013C217.943 48.9029 217.889 48.7103 217.852 48.4771C217.815 48.2401 217.796 48.0068 217.796 47.7773ZM218.002 45.3947L218.013 46.2666H217.086C216.856 46.2666 216.654 46.2907 216.48 46.3388C216.306 46.3833 216.164 46.4499 216.053 46.5388C215.941 46.6239 215.858 46.7276 215.803 46.8498C215.747 46.9683 215.719 47.1034 215.719 47.2552C215.719 47.4033 215.753 47.5366 215.819 47.6551C215.89 47.7736 215.99 47.868 216.119 47.9384C216.252 48.005 216.408 48.0383 216.586 48.0383C216.845 48.0383 217.071 47.9865 217.263 47.8828C217.456 47.7754 217.606 47.6458 217.713 47.494C217.821 47.3422 217.878 47.1978 217.885 47.0608L218.307 47.694C218.256 47.8458 218.178 48.0068 218.074 48.1772C217.97 48.3475 217.837 48.5067 217.674 48.6548C217.511 48.8029 217.315 48.9251 217.086 49.0214C216.856 49.1176 216.589 49.1658 216.286 49.1658C215.897 49.1658 215.549 49.088 215.242 48.9325C214.934 48.777 214.692 48.5641 214.514 48.2938C214.336 48.0235 214.248 47.7162 214.248 47.3719C214.248 47.0534 214.307 46.772 214.425 46.5277C214.544 46.2833 214.72 46.0778 214.953 45.9112C215.186 45.7409 215.475 45.6131 215.819 45.528C216.167 45.4391 216.565 45.3947 217.013 45.3947H218.002Z" fill="white"/>
<defs>
<linearGradient id="paint0_linear_265_2174" x1="36.0791" y1="66.1283" x2="15.4047" y2="14.9803" gradientUnits="userSpaceOnUse">
<stop offset="0.17" stop-color="#2C89FF"/>
<stop offset="1" stop-color="#70FEDC"/>
</linearGradient>
<linearGradient id="paint1_linear_265_2174" x1="26.9088" y1="69.8363" x2="6.23325" y2="18.6871" gradientUnits="userSpaceOnUse">
<stop offset="0.17" stop-color="#2C89FF"/>
<stop offset="1" stop-color="#70FEDC"/>
</linearGradient>
<linearGradient id="paint2_linear_265_2174" x1="18.4329" y1="73.2609" x2="-2.24156" y2="22.1129" gradientUnits="userSpaceOnUse">
<stop offset="0.17" stop-color="#2C89FF"/>
<stop offset="1" stop-color="#70FEDC"/>
</linearGradient>
<linearGradient id="paint3_linear_265_2174" x1="22.3662" y1="71.672" x2="1.69179" y2="20.524" gradientUnits="userSpaceOnUse">
<stop offset="0.17" stop-color="#2C89FF"/>
<stop offset="1" stop-color="#70FEDC"/>
</linearGradient>
<linearGradient id="paint4_linear_265_2174" x1="41.2359" y1="64.045" x2="20.5603" y2="12.8958" gradientUnits="userSpaceOnUse">
<stop offset="0.17" stop-color="#2C89FF"/>
<stop offset="1" stop-color="#70FEDC"/>
</linearGradient>
<linearGradient id="paint5_linear_265_2174" x1="33.8142" y1="67.0447" x2="13.1397" y2="15.8967" gradientUnits="userSpaceOnUse">
<stop offset="0.17" stop-color="#2C89FF"/>
<stop offset="1" stop-color="#70FEDC"/>
</linearGradient>
</defs>
</svg>
