<svg width="220" height="65" viewBox="0 0 220 65" fill="none" xmlns="http://www.w3.org/2000/svg">
<path d="M43.8728 30.4236C43.6227 30.1417 43.278 30.0726 42.9321 29.9954C39.8223 29.31 36.8972 28.1333 34.0866 26.6513C33.6745 26.4432 33.3572 26.0855 33.1996 25.6512C32.9659 25.05 32.7871 24.4418 32.6153 23.8909V23.8839C32.4178 23.2686 32.2179 22.7294 31.9316 22.3633L27.0233 11.4455C24.5691 5.98656 25.5356 7.72119 21.7971 0.801354C21.2782 -0.158955 20.549 -0.260718 19.7999 0.52063C18.0173 2.37185 16.241 4.2332 14.4709 6.10469L13.4927 7.13401L13.5768 7.25098L18.0609 5.53272C18.0259 5.66957 17.9499 5.95614 17.8506 6.31524C16.9893 9.42542 13.2286 21.9656 12.7214 23.5096C12.6442 23.7013 12.6442 23.9155 12.7214 24.1073C12.8453 24.3552 13.1246 24.45 13.2344 24.4851C20.3632 26.766 21.9993 26.8841 22.0168 26.8853C24.0444 27.1613 26.0732 27.3531 28.123 27.2455C29.2472 27.1704 30.3664 27.0341 31.4758 26.8373C31.4139 26.9449 31.401 26.9999 31.3695 27.0151C31.2117 27.0914 31.0498 27.159 30.8845 27.2175C24.6159 29.3229 18.4104 29.1544 12.2796 26.6665C11.8636 26.4969 11.5247 26.463 11.0993 26.635C9.30777 27.3602 7.4952 28.0304 5.64991 28.607C4.16613 29.0864 2.65362 29.4715 1.12141 29.7603C0.485661 29.8773 0.0801402 30.2153 0.00768409 30.8762C-0.0612661 31.5008 0.343086 31.7804 0.847941 31.9792C1.03142 32.0518 1.20905 32.1406 1.39136 32.2132C12.0159 36.5082 22.9385 37.4982 34.159 35.183C37.3218 34.52 40.4076 33.5311 43.3668 32.2319C44.2001 31.8669 44.4209 31.04 43.8728 30.4236Z" fill="url(#paint0_linear_1001_2333)"/>
<path d="M23.826 57.7463H23.8084C23.8084 55.8666 23.7453 53.9834 23.8295 52.1084C23.8902 50.7563 23.1026 50.734 22.1443 50.7539C21.186 50.7738 20.3048 50.6369 20.3399 52.1107C20.417 55.3859 20.3609 58.6692 20.3609 61.9489C20.3609 64.4521 20.3609 64.4333 22.8712 64.2801C23.5724 64.2368 23.8563 63.9994 23.84 63.2648C23.7991 61.4308 23.826 59.5862 23.826 57.7463Z" fill="url(#paint1_linear_1001_2333)"/>
<path d="M6.9668 46.1955V56.0723C7.98197 56.0719 8.95546 55.6681 9.67319 54.9495C10.3909 54.2309 10.7941 53.2564 10.7941 52.2404V42.3647C9.77905 42.3647 8.80555 42.7683 8.08779 43.4867C7.37003 44.2051 6.9668 45.1795 6.9668 46.1955Z" fill="url(#paint2_linear_1001_2333)"/>
<path d="M13.5703 51.2255V61.1011C14.5855 61.1011 15.5591 60.6976 16.277 59.9792C16.995 59.2608 17.3985 58.2865 17.3988 57.2704V47.3948C16.3836 47.3948 15.41 47.7983 14.6921 48.5167C13.9741 49.2351 13.5706 50.2094 13.5703 51.2255Z" fill="url(#paint3_linear_1001_2333)"/>
<path d="M33.4883 42.3647V52.2404C33.4883 53.2566 33.8916 54.2313 34.6096 54.9499C35.3276 55.6685 36.3014 56.0723 37.3168 56.0723V46.1955C37.3165 45.1794 36.913 44.205 36.195 43.4867C35.4771 42.7683 34.5035 42.3647 33.4883 42.3647Z" fill="url(#paint4_linear_1001_2333)"/>
<path d="M26.8848 47.3948V57.2716C26.8851 58.2876 27.2886 59.262 28.0065 59.9804C28.7245 60.6987 29.6981 61.1023 30.7133 61.1023V51.2255C30.7129 50.2094 30.3094 49.2351 29.5915 48.5167C28.8736 47.7983 27.8999 47.3948 26.8848 47.3948Z" fill="url(#paint5_linear_1001_2333)"/>
<path d="M63.1035 31.5703H59.9297V12H64.2496L69.9214 23.3332L71.7141 27.3933H71.9492L73.683 23.3332L79.296 12H83.616V31.5703H80.4421V19.5652L80.5597 16.7319H80.3246L79.1197 19.5652L73.683 30.4019H69.8627L64.426 19.5652L63.2211 16.7319H62.986L63.1035 19.5652V31.5703Z" fill="white"/>
<path d="M100.374 31.5703H97.4648V27.8315L97.2591 27.7439V22.7783C97.2591 21.5709 96.9652 20.7336 96.3775 20.2663C95.8093 19.7794 94.82 19.536 93.4094 19.536C92.0575 19.536 91.0486 19.7697 90.3825 20.237C89.7163 20.7044 89.3833 21.4736 89.3833 22.5446V22.6614H86.2388V22.5446C86.2388 21.4346 86.5327 20.4512 87.1204 19.5944C87.7082 18.7182 88.5506 18.0269 89.6478 17.5206C90.7645 17.0143 92.0967 16.7611 93.6445 16.7611C95.1922 16.7611 96.4559 17.024 97.4354 17.5498C98.4346 18.0561 99.1693 18.7571 99.6395 19.6529C100.129 20.5486 100.374 21.5807 100.374 22.7491V31.5703ZM90.8527 31.8624C89.3441 31.8624 88.1392 31.5313 87.238 30.8693C86.3564 30.1877 85.9156 29.253 85.9156 28.0652C85.9156 27.3057 86.1017 26.6728 86.4739 26.1666C86.8658 25.6408 87.4143 25.2319 88.1196 24.9398C88.8249 24.6477 89.6576 24.4432 90.6175 24.3264L97.553 23.5961V25.4655L91.5286 26.1373C90.7057 26.2347 90.0886 26.41 89.6772 26.6631C89.2853 26.8968 89.0894 27.296 89.0894 27.8607C89.0894 28.4449 89.2951 28.883 89.7065 29.1751C90.1376 29.4477 90.8037 29.5841 91.7049 29.5841C92.8216 29.5841 93.7914 29.4477 94.6142 29.1751C95.4371 28.883 96.0836 28.4351 96.5538 27.8315C97.024 27.2278 97.2591 26.4489 97.2591 25.4947L97.6705 25.5532V27.9483H97.2591C96.8673 29.1751 96.113 30.139 94.9963 30.8401C93.8992 31.5216 92.5179 31.8624 90.8527 31.8624Z" fill="white"/>
<path d="M110.877 36.828C109.428 36.828 108.154 36.604 107.057 36.1562C105.96 35.7278 105.098 35.1046 104.471 34.2868C103.864 33.4689 103.56 32.4758 103.56 31.3074H106.704C106.704 32.0084 106.851 32.5731 107.145 33.0016C107.439 33.43 107.9 33.7318 108.526 33.907C109.173 34.1018 110.015 34.1991 111.054 34.1991C112.171 34.1991 113.052 34.0726 113.699 33.8194C114.365 33.5857 114.845 33.1671 115.139 32.5634C115.433 31.9597 115.579 31.1224 115.579 30.0514V21.5515L115.815 21.347V17.0532H118.724V29.8761C118.724 31.4924 118.401 32.8068 117.754 33.8194C117.108 34.8515 116.197 35.6109 115.021 36.0977C113.846 36.5846 112.464 36.828 110.877 36.828ZM109.555 30.2559C108.105 30.2559 106.861 29.9735 105.823 29.4088C104.804 28.8441 104.011 28.0554 103.442 27.0428C102.894 26.0302 102.62 24.8521 102.62 23.5085C102.62 22.1649 102.904 20.9868 103.472 19.9742C104.06 18.9616 104.882 18.1729 105.94 17.6082C107.018 17.0435 108.291 16.7611 109.761 16.7611C111.289 16.7611 112.582 17.1019 113.64 17.7835C114.717 18.4455 115.384 19.4094 115.638 20.6752H116.314L116.138 23.2164H115.579C115.579 22.3985 115.384 21.717 114.992 21.1717C114.6 20.607 114.042 20.1884 113.317 19.9157C112.592 19.6431 111.71 19.5068 110.672 19.5068C109.673 19.5068 108.801 19.6334 108.056 19.8865C107.331 20.1397 106.773 20.5584 106.381 21.1425C106.009 21.7073 105.823 22.4959 105.823 23.5085C105.823 24.5016 106.009 25.2903 106.381 25.8745C106.753 26.4586 107.292 26.8871 107.997 27.1597C108.722 27.4128 109.584 27.5394 110.584 27.5394C112.19 27.5394 113.424 27.2084 114.286 26.5463C115.148 25.8842 115.579 24.9105 115.579 23.6253H116.138V26.4879H115.374C115.119 27.5978 114.502 28.5033 113.522 29.2043C112.543 29.9054 111.22 30.2559 109.555 30.2559Z" fill="white"/>
<path d="M124.834 31.5703H121.661V17.0532H124.834V31.5703ZM124.834 15.3591H121.661V12H124.834V15.3591Z" fill="white"/>
<path d="M135.15 31.8624C133.543 31.8624 132.142 31.5508 130.947 30.9277C129.752 30.2851 128.822 29.3991 128.155 28.2696C127.509 27.1207 127.186 25.8063 127.186 24.3264C127.186 22.8075 127.509 21.4833 128.155 20.3539C128.822 19.2245 129.752 18.3482 130.947 17.725C132.142 17.0824 133.543 16.7611 135.15 16.7611C136.619 16.7611 137.922 17.0143 139.058 17.5206C140.195 18.0269 141.086 18.7376 141.732 19.6529C142.399 20.5486 142.732 21.6099 142.732 22.8367V23.1288H139.587V22.9535C139.587 21.8241 139.195 20.9868 138.412 20.4415C137.628 19.8768 136.521 19.5944 135.091 19.5944C133.445 19.5944 132.24 19.9936 131.476 20.792C130.712 21.5709 130.33 22.7491 130.33 24.3264C130.33 25.8842 130.712 27.0623 131.476 27.8607C132.24 28.6396 133.445 29.0291 135.091 29.0291C136.521 29.0291 137.628 28.7565 138.412 28.2112C139.195 27.6465 139.587 26.7994 139.587 25.67V25.4655H142.732V25.7868C142.732 26.9942 142.399 28.0554 141.732 28.9707C141.086 29.8859 140.195 30.5966 139.058 31.1029C137.922 31.6092 136.619 31.8624 135.15 31.8624Z" fill="white"/>
<path d="M153.275 31.5703H150.101V12H160.328C161.817 12 163.1 12.2239 164.178 12.6718C165.275 13.1197 166.107 13.772 166.676 14.6288C167.263 15.4857 167.557 16.5275 167.557 17.7542C167.557 18.8447 167.322 19.7794 166.852 20.5584C166.401 21.3373 165.735 21.9507 164.854 22.3985C163.991 22.8464 162.943 23.1093 161.709 23.1872V23.3917C162.473 23.5864 163.061 23.9077 163.472 24.3556C163.903 24.784 164.295 25.3097 164.648 25.9329L167.939 31.5703H164.295L161.151 26.1666C160.857 25.6408 160.534 25.2221 160.181 24.9105C159.848 24.5795 159.427 24.3458 158.917 24.2095C158.408 24.0537 157.732 23.9758 156.889 23.9758H153.275V31.5703ZM153.275 14.8333V21.5515H160.298C161.611 21.5515 162.6 21.2983 163.267 20.792C163.933 20.2857 164.266 19.4192 164.266 18.1924C164.266 17.0045 163.933 16.1477 163.267 15.622C162.6 15.0962 161.611 14.8333 160.298 14.8333H153.275Z" fill="white"/>
<path d="M183.658 31.5703H180.748V27.8315L180.543 27.7439V22.7783C180.543 21.5709 180.249 20.7336 179.661 20.2663C179.093 19.7794 178.104 19.536 176.693 19.536C175.341 19.536 174.332 19.7697 173.666 20.237C173 20.7044 172.667 21.4736 172.667 22.5446V22.6614H169.522V22.5446C169.522 21.4346 169.816 20.4512 170.404 19.5944C170.992 18.7182 171.834 18.0269 172.931 17.5206C174.048 17.0143 175.38 16.7611 176.928 16.7611C178.476 16.7611 179.74 17.024 180.719 17.5498C181.718 18.0561 182.453 18.7571 182.923 19.6529C183.413 20.5486 183.658 21.5807 183.658 22.7491V31.5703ZM174.136 31.8624C172.628 31.8624 171.423 31.5313 170.522 30.8693C169.64 30.1877 169.199 29.253 169.199 28.0652C169.199 27.3057 169.385 26.6728 169.758 26.1666C170.149 25.6408 170.698 25.2319 171.403 24.9398C172.109 24.6477 172.941 24.4432 173.901 24.3264L180.837 23.5961V25.4655L174.812 26.1373C173.989 26.2347 173.372 26.41 172.961 26.6631C172.569 26.8968 172.373 27.296 172.373 27.8607C172.373 28.4449 172.579 28.883 172.99 29.1751C173.421 29.4477 174.087 29.5841 174.989 29.5841C176.105 29.5841 177.075 29.4477 177.898 29.1751C178.721 28.883 179.367 28.4351 179.837 27.8315C180.308 27.2278 180.543 26.4489 180.543 25.4947L180.954 25.5532V27.9483H180.543C180.151 29.1751 179.397 30.139 178.28 30.8401C177.183 31.5216 175.802 31.8624 174.136 31.8624Z" fill="white"/>
<path d="M201.743 31.5703H198.569V23.6838C198.569 22.3207 198.236 21.2983 197.57 20.6168C196.924 19.9352 195.836 19.5944 194.308 19.5944C192.721 19.5944 191.546 20.0034 190.782 20.8212C190.037 21.6196 189.665 22.8075 189.665 24.3848L189.106 24.414L188.96 21.5515H189.606C189.763 20.7336 190.076 19.9644 190.546 19.2439C191.036 18.504 191.702 17.91 192.545 17.4622C193.407 16.9948 194.455 16.7611 195.689 16.7611C197.041 16.7611 198.168 17.0338 199.069 17.579C199.97 18.1242 200.636 18.8545 201.067 19.7697C201.518 20.6849 201.743 21.7073 201.743 22.8367V31.5703ZM189.665 31.5703H186.491V17.0532H189.4V21.6099L189.665 21.7559V31.5703Z" fill="white"/>
<path d="M219.97 31.5703H216.238L211.918 25.6408H206.334V22.8075H211.918L216.297 17.0532H220L214.504 24.0343L219.97 31.5703ZM207.745 31.5703H204.571V12H207.745V31.5703Z" fill="white"/>
<path d="M59.7095 42.9682H62.6475C63.2621 42.9682 63.7898 43.0608 64.2304 43.2459C64.671 43.431 65.0098 43.705 65.2467 44.0679C65.4837 44.4307 65.6022 44.8769 65.6022 45.4064C65.6022 45.8248 65.5281 46.1876 65.38 46.4949C65.2319 46.8022 65.0227 47.0596 64.7524 47.2669C64.4859 47.4743 64.1711 47.6372 63.8083 47.7557L63.3306 48H60.737L60.7259 46.7948H62.6642C62.9789 46.7948 63.2399 46.7393 63.4473 46.6282C63.6546 46.5171 63.8101 46.3635 63.9138 46.1672C64.0212 45.971 64.0749 45.747 64.0749 45.4952C64.0749 45.2249 64.023 44.9917 63.9194 44.7954C63.8157 44.5955 63.6583 44.4418 63.4473 44.3345C63.2362 44.2271 62.9696 44.1734 62.6475 44.1734H61.2368V51.0547H59.7095V42.9682ZM64.2748 51.0547L62.4031 47.4335L64.0193 47.428L65.9132 50.9769V51.0547H64.2748ZM70.1397 49.7773V47.0059C70.1397 46.8022 70.1046 46.6264 70.0342 46.4783C69.9639 46.3302 69.8565 46.2154 69.7121 46.1339C69.5677 46.0525 69.3844 46.0117 69.1622 46.0117C68.966 46.0117 68.7938 46.0451 68.6457 46.1117C68.5013 46.1784 68.3903 46.2728 68.3125 46.395C68.2347 46.5134 68.1959 46.6504 68.1959 46.8059H66.7241C66.7241 46.5579 66.7833 46.3228 66.9018 46.1006C67.0203 45.8747 67.1888 45.6748 67.4072 45.5008C67.6294 45.3231 67.8941 45.1842 68.2014 45.0842C68.5124 44.9843 68.8605 44.9343 69.2456 44.9343C69.701 44.9343 70.1064 45.012 70.4619 45.1675C70.821 45.3194 71.1024 45.5489 71.3061 45.8562C71.5134 46.1635 71.6171 46.5505 71.6171 47.017V49.6384C71.6171 49.9384 71.6356 50.1957 71.6726 50.4104C71.7133 50.6215 71.7726 50.8048 71.8503 50.9603V51.0547H70.3563C70.286 50.9029 70.2323 50.7103 70.1953 50.4771C70.1582 50.2401 70.1397 50.0068 70.1397 49.7773ZM70.3452 47.3947L70.3563 48.2666H69.4288C69.1993 48.2666 68.9975 48.2907 68.8235 48.3388C68.6494 48.3833 68.5069 48.4499 68.3958 48.5388C68.2847 48.6239 68.2014 48.7276 68.1459 48.8498C68.0903 48.9683 68.0626 49.1034 68.0626 49.2552C68.0626 49.4033 68.0959 49.5366 68.1625 49.6551C68.2329 49.7736 68.3329 49.868 68.4625 49.9384C68.5957 50.005 68.7513 50.0383 68.929 50.0383C69.1882 50.0383 69.414 49.9865 69.6066 49.8828C69.7991 49.7754 69.9491 49.6458 70.0564 49.494C70.1638 49.3422 70.2212 49.1978 70.2286 49.0608L70.6507 49.694C70.5989 49.8458 70.5211 50.0068 70.4174 50.1772C70.3138 50.3475 70.1805 50.5067 70.0175 50.6548C69.8546 50.8029 69.6584 50.9251 69.4288 51.0214C69.1993 51.1176 68.9327 51.1658 68.6291 51.1658C68.2403 51.1658 67.8923 51.088 67.5849 50.9325C67.2776 50.777 67.0351 50.5641 66.8574 50.2938C66.6796 50.0235 66.5908 49.7162 66.5908 49.3719C66.5908 49.0534 66.65 48.772 66.7685 48.5277C66.887 48.2833 67.0629 48.0778 67.2961 47.9112C67.5294 47.7409 67.8182 47.6131 68.1625 47.528C68.5106 47.4391 68.9086 47.3947 69.3566 47.3947H70.3452ZM75.7825 45.0454V46.1006H72.3391V45.0454H75.7825ZM73.261 43.568H74.7328V49.3219C74.7328 49.4996 74.7569 49.6366 74.805 49.7329C74.8532 49.8291 74.9254 49.8939 75.0216 49.9272C75.1179 49.9606 75.2327 49.9772 75.366 49.9772C75.4622 49.9772 75.5511 49.9717 75.6326 49.9606C75.714 49.9495 75.7825 49.9384 75.838 49.9272L75.8436 51.0269C75.7214 51.0676 75.5826 51.101 75.4271 51.1269C75.2753 51.1528 75.1031 51.1658 74.9105 51.1658C74.581 51.1658 74.2922 51.1102 74.0441 50.9991C73.7961 50.8844 73.6035 50.7011 73.4665 50.4493C73.3295 50.1938 73.261 49.8569 73.261 49.4385V43.568ZM78.3151 45.0454V51.0547H76.8433V45.0454H78.3151ZM76.7433 43.4736C76.7433 43.2551 76.8174 43.0737 76.9655 42.9293C77.1173 42.7849 77.3209 42.7127 77.5764 42.7127C77.8319 42.7127 78.0337 42.7849 78.1818 42.9293C78.3336 43.0737 78.4095 43.2551 78.4095 43.4736C78.4095 43.6884 78.3336 43.8679 78.1818 44.0123C78.0337 44.1567 77.8319 44.2289 77.5764 44.2289C77.3209 44.2289 77.1173 44.1567 76.9655 44.0123C76.8174 43.8679 76.7433 43.6884 76.7433 43.4736ZM81.1531 46.3283V51.0547H79.6869V45.0454H81.0643L81.1531 46.3283ZM80.9199 47.8334H80.4867C80.4904 47.3965 80.5496 47.0003 80.6644 46.6449C80.7792 46.2894 80.9402 45.984 81.1476 45.7285C81.3586 45.473 81.6086 45.2768 81.8974 45.1398C82.1862 45.0028 82.5083 44.9343 82.8637 44.9343C83.1525 44.9343 83.4136 44.975 83.6468 45.0565C83.8801 45.1379 84.08 45.2675 84.2467 45.4452C84.417 45.623 84.5466 45.8562 84.6354 46.145C84.728 46.4301 84.7743 46.7819 84.7743 47.2003V51.0547H83.2969V47.1892C83.2969 46.9152 83.2562 46.6986 83.1748 46.5394C83.097 46.3801 82.9822 46.2672 82.8304 46.2006C82.6823 46.1339 82.499 46.1006 82.2806 46.1006C82.0547 46.1006 81.8566 46.1469 81.6863 46.2394C81.5197 46.3283 81.379 46.4523 81.2642 46.6116C81.1531 46.7708 81.068 46.9541 81.0087 47.1614C80.9495 47.3687 80.9199 47.5928 80.9199 47.8334ZM89.8894 45.0454H91.2224V50.8714C91.2224 51.4157 91.1039 51.8767 90.8669 52.2543C90.6337 52.6357 90.306 52.9245 89.8839 53.1207C89.4618 53.3207 88.9712 53.4207 88.4121 53.4207C88.1714 53.4207 87.9104 53.3873 87.629 53.3207C87.3513 53.254 87.0829 53.1485 86.8237 53.0041C86.5682 52.8634 86.3553 52.6801 86.185 52.4543L86.8459 51.5879C87.0458 51.8211 87.2717 51.997 87.5235 52.1155C87.7752 52.2377 88.0474 52.2988 88.3399 52.2988C88.6361 52.2988 88.8879 52.2432 89.0952 52.1321C89.3063 52.0248 89.4673 51.8656 89.5784 51.6545C89.6932 51.4472 89.7506 51.1917 89.7506 50.8881V46.4172L89.8894 45.0454ZM85.8295 48.1222V48.0056C85.8295 47.5465 85.8851 47.1299 85.9961 46.756C86.1072 46.3783 86.2664 46.0543 86.4738 45.784C86.6848 45.5137 86.9385 45.3045 87.2347 45.1564C87.5346 45.0083 87.8715 44.9343 88.2455 44.9343C88.6417 44.9343 88.9749 45.0065 89.2452 45.1509C89.5192 45.2953 89.745 45.5008 89.9228 45.7674C90.1042 46.034 90.2449 46.3505 90.3449 46.7171C90.4485 47.0799 90.5281 47.4798 90.5837 47.9167V48.2333C90.5318 48.6591 90.4485 49.0497 90.3338 49.4052C90.2227 49.7606 90.0746 50.0716 89.8894 50.3382C89.7043 50.6011 89.4747 50.8048 89.2008 50.9492C88.9268 51.0936 88.6046 51.1658 88.2344 51.1658C87.8641 51.1658 87.5309 51.0899 87.2347 50.9381C86.9385 50.7862 86.6848 50.5733 86.4738 50.2994C86.2664 50.0254 86.1072 49.7032 85.9961 49.333C85.8851 48.9627 85.8295 48.5591 85.8295 48.1222ZM87.2958 48.0056V48.1222C87.2958 48.3814 87.3217 48.6239 87.3735 48.8498C87.4254 49.0756 87.505 49.2756 87.6123 49.4496C87.7197 49.6199 87.8549 49.7532 88.0178 49.8495C88.1807 49.9458 88.3751 49.9939 88.6009 49.9939C88.9045 49.9939 89.1526 49.9309 89.3452 49.8051C89.5414 49.6755 89.6895 49.4996 89.7895 49.2774C89.8931 49.0516 89.9598 48.7979 89.9894 48.5166V47.6446C89.9709 47.4224 89.9302 47.2169 89.8672 47.0281C89.808 46.8393 89.7247 46.6764 89.6173 46.5394C89.5099 46.4024 89.3729 46.295 89.2063 46.2172C89.0397 46.1395 88.8416 46.1006 88.612 46.1006C88.3899 46.1006 88.1955 46.1506 88.0289 46.2506C87.8623 46.3468 87.7253 46.482 87.6179 46.656C87.5105 46.83 87.4291 47.0318 87.3735 47.2614C87.3217 47.4909 87.2958 47.739 87.2958 48.0056ZM95.8488 49.4107C95.8488 49.2848 95.8155 49.1719 95.7488 49.0719C95.6822 48.972 95.5563 48.8813 95.3711 48.7998C95.1897 48.7146 94.9231 48.635 94.5714 48.561C94.2604 48.4943 93.9734 48.411 93.7105 48.3111C93.4476 48.2111 93.2218 48.0908 93.033 47.9501C92.8441 47.8057 92.696 47.6372 92.5886 47.4446C92.485 47.2484 92.4331 47.0225 92.4331 46.7671C92.4331 46.519 92.4868 46.2857 92.5942 46.0673C92.7016 45.8451 92.8571 45.6507 93.0607 45.4841C93.2644 45.3138 93.5124 45.1805 93.8049 45.0842C94.0975 44.9843 94.427 44.9343 94.7935 44.9343C95.3045 44.9343 95.7433 45.0176 96.1098 45.1842C96.4801 45.3508 96.7633 45.5804 96.9596 45.8729C97.1558 46.1617 97.2539 46.4875 97.2539 46.8504H95.7877C95.7877 46.6912 95.7507 46.5468 95.6766 46.4172C95.6063 46.2876 95.497 46.1839 95.3489 46.1062C95.2008 46.0247 95.0138 45.984 94.788 45.984C94.5843 45.984 94.4122 46.0173 94.2715 46.0839C94.1345 46.1506 94.0308 46.2376 93.9605 46.345C93.8901 46.4523 93.8549 46.5708 93.8549 46.7004C93.8549 46.7967 93.8734 46.8837 93.9105 46.9615C93.9512 47.0355 94.016 47.104 94.1049 47.167C94.1937 47.2299 94.3141 47.2873 94.4659 47.3391C94.6214 47.391 94.8121 47.4409 95.0379 47.4891C95.4859 47.5779 95.8766 47.6964 96.2098 47.8445C96.5467 47.9889 96.8096 48.1815 96.9984 48.4221C97.1873 48.6628 97.2817 48.9701 97.2817 49.3441C97.2817 49.6107 97.2243 49.855 97.1095 50.0772C96.9947 50.2957 96.8281 50.4863 96.6097 50.6493C96.3912 50.8122 96.1302 50.9399 95.8266 51.0325C95.523 51.1213 95.1805 51.1658 94.7991 51.1658C94.2474 51.1658 93.7809 51.0676 93.3995 50.8714C93.0181 50.6715 92.7293 50.4197 92.5331 50.1161C92.3369 49.8088 92.2387 49.4903 92.2387 49.1608H93.6439C93.655 49.3941 93.7179 49.5811 93.8327 49.7217C93.9475 49.8624 94.0919 49.9643 94.2659 50.0272C94.4436 50.0865 94.6306 50.1161 94.8269 50.1161C95.049 50.1161 95.236 50.0865 95.3878 50.0272C95.5396 49.9643 95.6544 49.881 95.7322 49.7773C95.8099 49.6699 95.8488 49.5477 95.8488 49.4107ZM99.781 49.7329L99.7698 50.7492C99.7698 51.1454 99.6717 51.5471 99.4755 51.9544C99.2792 52.3617 99.0256 52.6986 98.7146 52.9652L97.9371 52.5376C98.037 52.371 98.1296 52.2025 98.2148 52.0322C98.3036 51.8619 98.374 51.6767 98.4258 51.4768C98.4813 51.2805 98.5091 51.0602 98.5091 50.8159V49.7329H99.781ZM105.346 46.3283V51.0547H103.88V45.0454H105.257L105.346 46.3283ZM105.113 47.8334H104.679C104.683 47.3965 104.742 47.0003 104.857 46.6449C104.972 46.2894 105.133 45.984 105.34 45.7285C105.551 45.473 105.801 45.2768 106.09 45.1398C106.379 45.0028 106.701 44.9343 107.057 44.9343C107.345 44.9343 107.606 44.975 107.84 45.0565C108.073 45.1379 108.273 45.2675 108.439 45.4452C108.61 45.623 108.739 45.8562 108.828 46.145C108.921 46.4301 108.967 46.7819 108.967 47.2003V51.0547H107.49V47.1892C107.49 46.9152 107.449 46.6986 107.368 46.5394C107.29 46.3801 107.175 46.2672 107.023 46.2006C106.875 46.1339 106.692 46.1006 106.473 46.1006C106.248 46.1006 106.049 46.1469 105.879 46.2394C105.713 46.3283 105.572 46.4523 105.457 46.6116C105.346 46.7708 105.261 46.9541 105.202 47.1614C105.142 47.3687 105.113 47.5928 105.113 47.8334ZM112.96 51.1658C112.505 51.1658 112.096 51.0917 111.733 50.9436C111.37 50.7955 111.061 50.59 110.805 50.3271C110.554 50.0605 110.359 49.7514 110.222 49.3996C110.089 49.0442 110.022 48.6628 110.022 48.2555V48.0334C110.022 47.5705 110.089 47.1503 110.222 46.7726C110.356 46.3913 110.544 46.0636 110.789 45.7896C111.033 45.5156 111.326 45.3045 111.666 45.1564C112.007 45.0083 112.383 44.9343 112.794 44.9343C113.22 44.9343 113.595 45.0065 113.921 45.1509C114.247 45.2916 114.519 45.4915 114.738 45.7507C114.956 46.0099 115.121 46.3209 115.232 46.6838C115.343 47.0429 115.399 47.4409 115.399 47.8779V48.4943H110.689V47.4835H113.955V47.3724C113.947 47.1392 113.903 46.9263 113.821 46.7337C113.74 46.5375 113.614 46.382 113.444 46.2672C113.273 46.1487 113.053 46.0895 112.783 46.0895C112.564 46.0895 112.374 46.1376 112.211 46.2339C112.051 46.3265 111.918 46.4598 111.811 46.6338C111.707 46.8041 111.629 47.0077 111.577 47.2447C111.526 47.4817 111.5 47.7446 111.5 48.0334V48.2555C111.5 48.5073 111.533 48.7406 111.6 48.9553C111.67 49.1701 111.772 49.357 111.905 49.5163C112.042 49.6718 112.205 49.794 112.394 49.8828C112.586 49.968 112.805 50.0106 113.049 50.0106C113.357 50.0106 113.634 49.9513 113.882 49.8328C114.134 49.7106 114.353 49.5311 114.538 49.2941L115.276 50.0605C115.15 50.2457 114.98 50.4234 114.765 50.5937C114.554 50.764 114.299 50.9029 113.999 51.0103C113.699 51.1139 113.353 51.1658 112.96 51.1658ZM118.053 49.6107L119.37 45.0454H120.303L120.025 46.6227L118.698 51.0547H117.892L118.053 49.6107ZM117.326 45.0454L118.314 49.6218L118.403 51.0547H117.476L115.898 45.0454H117.326ZM121.525 49.5551L122.491 45.0454H123.913L122.346 51.0547H121.419L121.525 49.5551ZM120.447 45.0454L121.752 49.5662L121.924 51.0547H121.119L119.781 46.6227L119.508 45.0454H120.447ZM128.084 49.4107C128.084 49.2848 128.05 49.1719 127.984 49.0719C127.917 48.972 127.791 48.8813 127.606 48.7998C127.425 48.7146 127.158 48.635 126.806 48.561C126.495 48.4943 126.208 48.411 125.945 48.3111C125.683 48.2111 125.457 48.0908 125.268 47.9501C125.079 47.8057 124.931 47.6372 124.824 47.4446C124.72 47.2484 124.668 47.0225 124.668 46.7671C124.668 46.519 124.722 46.2857 124.829 46.0673C124.936 45.8451 125.092 45.6507 125.296 45.4841C125.499 45.3138 125.747 45.1805 126.04 45.0842C126.332 44.9843 126.662 44.9343 127.028 44.9343C127.539 44.9343 127.978 45.0176 128.345 45.1842C128.715 45.3508 128.998 45.5804 129.194 45.8729C129.391 46.1617 129.489 46.4875 129.489 46.8504H128.023C128.023 46.6912 127.986 46.5468 127.911 46.4172C127.841 46.2876 127.732 46.1839 127.584 46.1062C127.436 46.0247 127.249 45.984 127.023 45.984C126.819 45.984 126.647 46.0173 126.506 46.0839C126.369 46.1506 126.266 46.2376 126.195 46.345C126.125 46.4523 126.09 46.5708 126.09 46.7004C126.09 46.7967 126.108 46.8837 126.145 46.9615C126.186 47.0355 126.251 47.104 126.34 47.167C126.429 47.2299 126.549 47.2873 126.701 47.3391C126.856 47.391 127.047 47.4409 127.273 47.4891C127.721 47.5779 128.111 47.6964 128.445 47.8445C128.782 47.9889 129.044 48.1815 129.233 48.4221C129.422 48.6628 129.517 48.9701 129.517 49.3441C129.517 49.6107 129.459 49.855 129.344 50.0772C129.23 50.2957 129.063 50.4863 128.845 50.6493C128.626 50.8122 128.365 50.9399 128.061 51.0325C127.758 51.1213 127.415 51.1658 127.034 51.1658C126.482 51.1658 126.016 51.0676 125.634 50.8714C125.253 50.6715 124.964 50.4197 124.768 50.1161C124.572 49.8088 124.474 49.4903 124.474 49.1608H125.879C125.89 49.3941 125.953 49.5811 126.068 49.7217C126.182 49.8624 126.327 49.9643 126.501 50.0272C126.679 50.0865 126.866 50.1161 127.062 50.1161C127.284 50.1161 127.471 50.0865 127.623 50.0272C127.775 49.9643 127.889 49.881 127.967 49.7773C128.045 49.6699 128.084 49.5477 128.084 49.4107ZM132.016 49.7329L132.005 50.7492C132.005 51.1454 131.907 51.5471 131.71 51.9544C131.514 52.3617 131.261 52.6986 130.949 52.9652L130.172 52.5376C130.272 52.371 130.364 52.2025 130.45 52.0322C130.538 51.8619 130.609 51.6767 130.661 51.4768C130.716 51.2805 130.744 51.0602 130.744 50.8159V49.7329H132.016ZM139.453 49.7773V47.0059C139.453 46.8022 139.417 46.6264 139.347 46.4783C139.277 46.3302 139.169 46.2154 139.025 46.1339C138.88 46.0525 138.697 46.0117 138.475 46.0117C138.279 46.0117 138.107 46.0451 137.959 46.1117C137.814 46.1784 137.703 46.2728 137.625 46.395C137.548 46.5134 137.509 46.6504 137.509 46.8059H136.037C136.037 46.5579 136.096 46.3228 136.215 46.1006C136.333 45.8747 136.502 45.6748 136.72 45.5008C136.942 45.3231 137.207 45.1842 137.514 45.0842C137.825 44.9843 138.173 44.9343 138.558 44.9343C139.014 44.9343 139.419 45.012 139.775 45.1675C140.134 45.3194 140.415 45.5489 140.619 45.8562C140.826 46.1635 140.93 46.5505 140.93 47.017V49.6384C140.93 49.9384 140.948 50.1957 140.985 50.4104C141.026 50.6215 141.085 50.8048 141.163 50.9603V51.0547H139.669C139.599 50.9029 139.545 50.7103 139.508 50.4771C139.471 50.2401 139.453 50.0068 139.453 49.7773ZM139.658 47.3947L139.669 48.2666H138.742C138.512 48.2666 138.31 48.2907 138.136 48.3388C137.962 48.3833 137.82 48.4499 137.709 48.5388C137.598 48.6239 137.514 48.7276 137.459 48.8498C137.403 48.9683 137.375 49.1034 137.375 49.2552C137.375 49.4033 137.409 49.5366 137.475 49.6551C137.546 49.7736 137.646 49.868 137.775 49.9384C137.909 50.005 138.064 50.0383 138.242 50.0383C138.501 50.0383 138.727 49.9865 138.919 49.8828C139.112 49.7754 139.262 49.6458 139.369 49.494C139.477 49.3422 139.534 49.1978 139.541 49.0608L139.963 49.694C139.912 49.8458 139.834 50.0068 139.73 50.1772C139.627 50.3475 139.493 50.5067 139.33 50.6548C139.167 50.8029 138.971 50.9251 138.742 51.0214C138.512 51.1176 138.245 51.1658 137.942 51.1658C137.553 51.1658 137.205 51.088 136.898 50.9325C136.59 50.777 136.348 50.5641 136.17 50.2938C135.992 50.0235 135.904 49.7162 135.904 49.3719C135.904 49.0534 135.963 48.772 136.081 48.5277C136.2 48.2833 136.376 48.0778 136.609 47.9112C136.842 47.7409 137.131 47.6131 137.475 47.528C137.823 47.4391 138.221 47.3947 138.669 47.3947H139.658ZM143.69 46.3283V51.0547H142.224V45.0454H143.601L143.69 46.3283ZM143.457 47.8334H143.024C143.027 47.3965 143.087 47.0003 143.201 46.6449C143.316 46.2894 143.477 45.984 143.685 45.7285C143.896 45.473 144.146 45.2768 144.434 45.1398C144.723 45.0028 145.045 44.9343 145.401 44.9343C145.69 44.9343 145.951 44.975 146.184 45.0565C146.417 45.1379 146.617 45.2675 146.784 45.4452C146.954 45.623 147.084 45.8562 147.172 46.145C147.265 46.4301 147.311 46.7819 147.311 47.2003V51.0547H145.834V47.1892C145.834 46.9152 145.793 46.6986 145.712 46.5394C145.634 46.3801 145.519 46.2672 145.367 46.2006C145.219 46.1339 145.036 46.1006 144.818 46.1006C144.592 46.1006 144.394 46.1469 144.223 46.2394C144.057 46.3283 143.916 46.4523 143.801 46.6116C143.69 46.7708 143.605 46.9541 143.546 47.1614C143.487 47.3687 143.457 47.5928 143.457 47.8334ZM151.916 49.7773V47.0059C151.916 46.8022 151.88 46.6264 151.81 46.4783C151.74 46.3302 151.632 46.2154 151.488 46.1339C151.343 46.0525 151.16 46.0117 150.938 46.0117C150.742 46.0117 150.57 46.0451 150.422 46.1117C150.277 46.1784 150.166 46.2728 150.088 46.395C150.011 46.5134 149.972 46.6504 149.972 46.8059H148.5C148.5 46.5579 148.559 46.3228 148.678 46.1006C148.796 45.8747 148.965 45.6748 149.183 45.5008C149.405 45.3231 149.67 45.1842 149.977 45.0842C150.288 44.9843 150.636 44.9343 151.021 44.9343C151.477 44.9343 151.882 45.012 152.238 45.1675C152.597 45.3194 152.878 45.5489 153.082 45.8562C153.289 46.1635 153.393 46.5505 153.393 47.017V49.6384C153.393 49.9384 153.411 50.1957 153.448 50.4104C153.489 50.6215 153.548 50.8048 153.626 50.9603V51.0547H152.132C152.062 50.9029 152.008 50.7103 151.971 50.4771C151.934 50.2401 151.916 50.0068 151.916 49.7773ZM152.121 47.3947L152.132 48.2666H151.205C150.975 48.2666 150.773 48.2907 150.599 48.3388C150.425 48.3833 150.283 48.4499 150.172 48.5388C150.06 48.6239 149.977 48.7276 149.922 48.8498C149.866 48.9683 149.838 49.1034 149.838 49.2552C149.838 49.4033 149.872 49.5366 149.938 49.6551C150.009 49.7736 150.109 49.868 150.238 49.9384C150.372 50.005 150.527 50.0383 150.705 50.0383C150.964 50.0383 151.19 49.9865 151.382 49.8828C151.575 49.7754 151.725 49.6458 151.832 49.494C151.94 49.3422 151.997 49.1978 152.004 49.0608L152.426 49.694C152.375 49.8458 152.297 50.0068 152.193 50.1772C152.09 50.3475 151.956 50.5067 151.793 50.6548C151.63 50.8029 151.434 50.9251 151.205 51.0214C150.975 51.1176 150.708 51.1658 150.405 51.1658C150.016 51.1658 149.668 51.088 149.361 50.9325C149.053 50.777 148.811 50.5641 148.633 50.2938C148.455 50.0235 148.367 49.7162 148.367 49.3719C148.367 49.0534 148.426 48.772 148.544 48.5277C148.663 48.2833 148.839 48.0778 149.072 47.9112C149.305 47.7409 149.594 47.6131 149.938 47.528C150.286 47.4391 150.684 47.3947 151.132 47.3947H152.121ZM156.27 42.5239V51.0547H154.798V42.5239H156.27ZM159.43 50.3882L161.041 45.0454H162.612L160.202 51.9655C160.146 52.1136 160.074 52.2747 159.985 52.4487C159.9 52.6227 159.785 52.7875 159.641 52.943C159.497 53.1022 159.315 53.2318 159.097 53.3318C158.882 53.4318 158.621 53.4817 158.314 53.4817C158.18 53.4817 158.062 53.4725 157.958 53.454C157.854 53.4355 157.745 53.4114 157.63 53.3818V52.2821C157.668 52.2858 157.71 52.2877 157.758 52.2877C157.81 52.2914 157.854 52.2932 157.892 52.2932C158.106 52.2932 158.284 52.2673 158.425 52.2155C158.565 52.1673 158.678 52.0877 158.763 51.9766C158.852 51.8693 158.926 51.7286 158.986 51.5545L159.43 50.3882ZM158.636 45.0454L159.996 49.4718L160.235 51.0214L159.224 51.2046L157.053 45.0454H158.636ZM166.167 45.0454V46.1006H162.723V45.0454H166.167ZM163.645 43.568H165.117V49.3219C165.117 49.4996 165.141 49.6366 165.189 49.7329C165.237 49.8291 165.31 49.8939 165.406 49.9272C165.502 49.9606 165.617 49.9772 165.75 49.9772C165.847 49.9772 165.935 49.9717 166.017 49.9606C166.098 49.9495 166.167 49.9384 166.222 49.9272L166.228 51.0269C166.106 51.0676 165.967 51.101 165.811 51.1269C165.66 51.1528 165.487 51.1658 165.295 51.1658C164.965 51.1658 164.677 51.1102 164.428 50.9991C164.18 50.8844 163.988 50.7011 163.851 50.4493C163.714 50.1938 163.645 49.8569 163.645 49.4385V43.568ZM168.699 45.0454V51.0547H167.228V45.0454H168.699ZM167.128 43.4736C167.128 43.2551 167.202 43.0737 167.35 42.9293C167.502 42.7849 167.705 42.7127 167.961 42.7127C168.216 42.7127 168.418 42.7849 168.566 42.9293C168.718 43.0737 168.794 43.2551 168.794 43.4736C168.794 43.6884 168.718 43.8679 168.566 44.0123C168.418 44.1567 168.216 44.2289 167.961 44.2289C167.705 44.2289 167.502 44.1567 167.35 44.0123C167.202 43.8679 167.128 43.6884 167.128 43.4736ZM172.565 50.0106C172.772 50.0106 172.957 49.9698 173.12 49.8884C173.283 49.8069 173.413 49.6921 173.509 49.544C173.609 49.3959 173.663 49.2237 173.67 49.0275H175.053C175.046 49.4348 174.931 49.7995 174.709 50.1216C174.487 50.4438 174.19 50.6992 173.82 50.8881C173.454 51.0732 173.043 51.1658 172.587 51.1658C172.124 51.1658 171.721 51.088 171.376 50.9325C171.032 50.777 170.745 50.5604 170.516 50.2827C170.29 50.005 170.119 49.6829 170.005 49.3163C169.894 48.9498 169.838 48.5573 169.838 48.1389V47.9612C169.838 47.5428 169.894 47.1503 170.005 46.7837C170.119 46.4172 170.29 46.095 170.516 45.8174C170.745 45.5397 171.032 45.3231 171.376 45.1675C171.721 45.012 172.122 44.9343 172.582 44.9343C173.067 44.9343 173.492 45.0287 173.859 45.2175C174.229 45.4064 174.518 45.6729 174.725 46.0173C174.936 46.3616 175.046 46.7671 175.053 47.2336H173.67C173.663 47.0188 173.615 46.8263 173.526 46.656C173.437 46.4857 173.311 46.3487 173.148 46.245C172.985 46.1413 172.787 46.0895 172.554 46.0895C172.306 46.0895 172.098 46.1413 171.932 46.245C171.769 46.3487 171.641 46.4912 171.549 46.6727C171.46 46.8504 171.397 47.0503 171.36 47.2725C171.326 47.4909 171.31 47.7205 171.31 47.9612V48.1389C171.31 48.3833 171.326 48.6165 171.36 48.8387C171.397 49.0608 171.46 49.2608 171.549 49.4385C171.641 49.6125 171.769 49.7514 171.932 49.855C172.098 49.9587 172.309 50.0106 172.565 50.0106ZM179.335 49.4107C179.335 49.2848 179.302 49.1719 179.235 49.0719C179.169 48.972 179.043 48.8813 178.858 48.7998C178.676 48.7146 178.409 48.635 178.058 48.561C177.747 48.4943 177.46 48.411 177.197 48.3111C176.934 48.2111 176.708 48.0908 176.519 47.9501C176.33 47.8057 176.182 47.6372 176.075 47.4446C175.971 47.2484 175.919 47.0225 175.919 46.7671C175.919 46.519 175.973 46.2857 176.081 46.0673C176.188 45.8451 176.343 45.6507 176.547 45.4841C176.751 45.3138 176.999 45.1805 177.291 45.0842C177.584 44.9843 177.913 44.9343 178.28 44.9343C178.791 44.9343 179.23 45.0176 179.596 45.1842C179.966 45.3508 180.25 45.5804 180.446 45.8729C180.642 46.1617 180.74 46.4875 180.74 46.8504H179.274C179.274 46.6912 179.237 46.5468 179.163 46.4172C179.093 46.2876 178.983 46.1839 178.835 46.1062C178.687 46.0247 178.5 45.984 178.274 45.984C178.071 45.984 177.899 46.0173 177.758 46.0839C177.621 46.1506 177.517 46.2376 177.447 46.345C177.376 46.4523 177.341 46.5708 177.341 46.7004C177.341 46.7967 177.36 46.8837 177.397 46.9615C177.438 47.0355 177.502 47.104 177.591 47.167C177.68 47.2299 177.8 47.2873 177.952 47.3391C178.108 47.391 178.298 47.4409 178.524 47.4891C178.972 47.5779 179.363 47.6964 179.696 47.8445C180.033 47.9889 180.296 48.1815 180.485 48.4221C180.674 48.6628 180.768 48.9701 180.768 49.3441C180.768 49.6107 180.711 49.855 180.596 50.0772C180.481 50.2957 180.314 50.4863 180.096 50.6493C179.878 50.8122 179.617 50.9399 179.313 51.0325C179.009 51.1213 178.667 51.1658 178.285 51.1658C177.734 51.1658 177.267 51.0676 176.886 50.8714C176.505 50.6715 176.216 50.4197 176.019 50.1161C175.823 49.8088 175.725 49.4903 175.725 49.1608H177.13C177.141 49.3941 177.204 49.5811 177.319 49.7217C177.434 49.8624 177.578 49.9643 177.752 50.0272C177.93 50.0865 178.117 50.1161 178.313 50.1161C178.535 50.1161 178.722 50.0865 178.874 50.0272C179.026 49.9643 179.141 49.881 179.219 49.7773C179.296 49.6699 179.335 49.5477 179.335 49.4107Z" fill="white"/>
<defs>
<linearGradient id="paint0_linear_1001_2333" x1="36.0791" y1="65.7597" x2="15.4047" y2="14.6116" gradientUnits="userSpaceOnUse">
<stop offset="0.17" stop-color="#2C89FF"/>
<stop offset="1" stop-color="#70FEDC"/>
</linearGradient>
<linearGradient id="paint1_linear_1001_2333" x1="26.9088" y1="69.4677" x2="6.23325" y2="18.3185" gradientUnits="userSpaceOnUse">
<stop offset="0.17" stop-color="#2C89FF"/>
<stop offset="1" stop-color="#70FEDC"/>
</linearGradient>
<linearGradient id="paint2_linear_1001_2333" x1="18.4324" y1="72.8923" x2="-2.24205" y2="21.7443" gradientUnits="userSpaceOnUse">
<stop offset="0.17" stop-color="#2C89FF"/>
<stop offset="1" stop-color="#70FEDC"/>
</linearGradient>
<linearGradient id="paint3_linear_1001_2333" x1="22.3667" y1="71.3031" x2="1.69228" y2="20.1551" gradientUnits="userSpaceOnUse">
<stop offset="0.17" stop-color="#2C89FF"/>
<stop offset="1" stop-color="#70FEDC"/>
</linearGradient>
<linearGradient id="paint4_linear_1001_2333" x1="41.2364" y1="63.6764" x2="20.5608" y2="12.5272" gradientUnits="userSpaceOnUse">
<stop offset="0.17" stop-color="#2C89FF"/>
<stop offset="1" stop-color="#70FEDC"/>
</linearGradient>
<linearGradient id="paint5_linear_1001_2333" x1="33.8137" y1="66.6758" x2="13.1392" y2="15.5278" gradientUnits="userSpaceOnUse">
<stop offset="0.17" stop-color="#2C89FF"/>
<stop offset="1" stop-color="#70FEDC"/>
</linearGradient>
</defs>
</svg>
