<svg width="220" height="65" viewBox="0 0 220 65" fill="none" xmlns="http://www.w3.org/2000/svg">
<path d="M43.8728 30.4236C43.6227 30.1417 43.278 30.0726 42.9321 29.9954C39.8223 29.31 36.8972 28.1333 34.0866 26.6513C33.6745 26.4432 33.3572 26.0855 33.1996 25.6512C32.9659 25.05 32.7871 24.4418 32.6153 23.8909V23.8839C32.4178 23.2686 32.2179 22.7294 31.9316 22.3633L27.0233 11.4455C24.5691 5.98656 25.5356 7.72119 21.7971 0.801354C21.2782 -0.158955 20.549 -0.260718 19.7999 0.52063C18.0173 2.37185 16.241 4.2332 14.4709 6.10469L13.4927 7.13401L13.5768 7.25098L18.0609 5.53272C18.0259 5.66957 17.9499 5.95614 17.8506 6.31524C16.9893 9.42542 13.2286 21.9656 12.7214 23.5096C12.6442 23.7013 12.6442 23.9155 12.7214 24.1073C12.8453 24.3552 13.1246 24.45 13.2344 24.4851C20.3632 26.766 21.9993 26.8841 22.0168 26.8853C24.0444 27.1613 26.0732 27.3531 28.123 27.2455C29.2472 27.1704 30.3664 27.0341 31.4758 26.8373C31.4139 26.9449 31.401 26.9999 31.3695 27.0151C31.2117 27.0914 31.0498 27.159 30.8845 27.2175C24.6159 29.3229 18.4104 29.1544 12.2796 26.6665C11.8636 26.4969 11.5247 26.463 11.0993 26.635C9.30777 27.3602 7.4952 28.0304 5.64991 28.607C4.16613 29.0864 2.65362 29.4715 1.12141 29.7603C0.485661 29.8773 0.0801402 30.2153 0.00768409 30.8762C-0.0612661 31.5008 0.343086 31.7804 0.847941 31.9792C1.03142 32.0518 1.20905 32.1406 1.39136 32.2132C12.0159 36.5082 22.9385 37.4982 34.159 35.183C37.3218 34.52 40.4076 33.5311 43.3668 32.2319C44.2001 31.8669 44.4209 31.04 43.8728 30.4236Z" fill="url(#paint0_linear_1001_2348)"/>
<path d="M23.826 57.7463H23.8084C23.8084 55.8666 23.7453 53.9834 23.8295 52.1084C23.8902 50.7563 23.1026 50.734 22.1443 50.7539C21.186 50.7738 20.3048 50.6369 20.3399 52.1107C20.417 55.3859 20.3609 58.6692 20.3609 61.9489C20.3609 64.4521 20.3609 64.4333 22.8712 64.2801C23.5724 64.2368 23.8563 63.9994 23.84 63.2648C23.7991 61.4308 23.826 59.5862 23.826 57.7463Z" fill="url(#paint1_linear_1001_2348)"/>
<path d="M6.9668 46.1955V56.0723C7.98197 56.0719 8.95546 55.6681 9.67319 54.9495C10.3909 54.2309 10.7941 53.2564 10.7941 52.2404V42.3647C9.77905 42.3647 8.80555 42.7683 8.08779 43.4867C7.37003 44.2051 6.9668 45.1795 6.9668 46.1955Z" fill="url(#paint2_linear_1001_2348)"/>
<path d="M13.5703 51.2255V61.1011C14.5855 61.1011 15.5591 60.6976 16.277 59.9792C16.995 59.2608 17.3985 58.2865 17.3988 57.2704V47.3948C16.3836 47.3948 15.41 47.7983 14.6921 48.5167C13.9741 49.2351 13.5706 50.2094 13.5703 51.2255Z" fill="url(#paint3_linear_1001_2348)"/>
<path d="M33.4883 42.3647V52.2404C33.4883 53.2566 33.8916 54.2313 34.6096 54.9499C35.3276 55.6685 36.3014 56.0723 37.3168 56.0723V46.1955C37.3165 45.1794 36.913 44.205 36.195 43.4867C35.4771 42.7683 34.5035 42.3647 33.4883 42.3647Z" fill="url(#paint4_linear_1001_2348)"/>
<path d="M26.8848 47.3948V57.2716C26.8851 58.2876 27.2886 59.262 28.0065 59.9804C28.7245 60.6987 29.6981 61.1023 30.7133 61.1023V51.2255C30.7129 50.2094 30.3094 49.2351 29.5915 48.5167C28.8736 47.7983 27.8999 47.3948 26.8848 47.3948Z" fill="url(#paint5_linear_1001_2348)"/>
<path d="M63.1035 31.5703H59.9297V12H64.2496L69.9214 23.3332L71.7141 27.3933H71.9492L73.683 23.3332L79.296 12H83.616V31.5703H80.4421V19.5652L80.5597 16.7319H80.3246L79.1197 19.5652L73.683 30.4019H69.8627L64.426 19.5652L63.2211 16.7319H62.986L63.1035 19.5652V31.5703Z" fill="white"/>
<path d="M100.374 31.5703H97.4648V27.8315L97.2591 27.7439V22.7783C97.2591 21.5709 96.9652 20.7336 96.3775 20.2663C95.8093 19.7794 94.82 19.536 93.4094 19.536C92.0575 19.536 91.0486 19.7697 90.3825 20.237C89.7163 20.7044 89.3833 21.4736 89.3833 22.5446V22.6614H86.2388V22.5446C86.2388 21.4346 86.5327 20.4512 87.1204 19.5944C87.7082 18.7182 88.5506 18.0269 89.6478 17.5206C90.7645 17.0143 92.0967 16.7611 93.6445 16.7611C95.1922 16.7611 96.4559 17.024 97.4354 17.5498C98.4346 18.0561 99.1693 18.7571 99.6395 19.6529C100.129 20.5486 100.374 21.5807 100.374 22.7491V31.5703ZM90.8527 31.8624C89.3441 31.8624 88.1392 31.5313 87.238 30.8693C86.3564 30.1877 85.9156 29.253 85.9156 28.0652C85.9156 27.3057 86.1017 26.6728 86.4739 26.1666C86.8658 25.6408 87.4143 25.2319 88.1196 24.9398C88.8249 24.6477 89.6576 24.4432 90.6175 24.3264L97.553 23.5961V25.4655L91.5286 26.1373C90.7057 26.2347 90.0886 26.41 89.6772 26.6631C89.2853 26.8968 89.0894 27.296 89.0894 27.8607C89.0894 28.4449 89.2951 28.883 89.7065 29.1751C90.1376 29.4477 90.8037 29.5841 91.7049 29.5841C92.8216 29.5841 93.7914 29.4477 94.6142 29.1751C95.4371 28.883 96.0836 28.4351 96.5538 27.8315C97.024 27.2278 97.2591 26.4489 97.2591 25.4947L97.6705 25.5532V27.9483H97.2591C96.8673 29.1751 96.113 30.139 94.9963 30.8401C93.8992 31.5216 92.5179 31.8624 90.8527 31.8624Z" fill="white"/>
<path d="M110.877 36.828C109.428 36.828 108.154 36.604 107.057 36.1562C105.96 35.7278 105.098 35.1046 104.471 34.2868C103.864 33.4689 103.56 32.4758 103.56 31.3074H106.704C106.704 32.0084 106.851 32.5731 107.145 33.0016C107.439 33.43 107.9 33.7318 108.526 33.907C109.173 34.1018 110.015 34.1991 111.054 34.1991C112.171 34.1991 113.052 34.0726 113.699 33.8194C114.365 33.5857 114.845 33.1671 115.139 32.5634C115.433 31.9597 115.579 31.1224 115.579 30.0514V21.5515L115.815 21.347V17.0532H118.724V29.8761C118.724 31.4924 118.401 32.8068 117.754 33.8194C117.108 34.8515 116.197 35.6109 115.021 36.0977C113.846 36.5846 112.464 36.828 110.877 36.828ZM109.555 30.2559C108.105 30.2559 106.861 29.9735 105.823 29.4088C104.804 28.8441 104.011 28.0554 103.442 27.0428C102.894 26.0302 102.62 24.8521 102.62 23.5085C102.62 22.1649 102.904 20.9868 103.472 19.9742C104.06 18.9616 104.882 18.1729 105.94 17.6082C107.018 17.0435 108.291 16.7611 109.761 16.7611C111.289 16.7611 112.582 17.1019 113.64 17.7835C114.717 18.4455 115.384 19.4094 115.638 20.6752H116.314L116.138 23.2164H115.579C115.579 22.3985 115.384 21.717 114.992 21.1717C114.6 20.607 114.042 20.1884 113.317 19.9157C112.592 19.6431 111.71 19.5068 110.672 19.5068C109.673 19.5068 108.801 19.6334 108.056 19.8865C107.331 20.1397 106.773 20.5584 106.381 21.1425C106.009 21.7073 105.823 22.4959 105.823 23.5085C105.823 24.5016 106.009 25.2903 106.381 25.8745C106.753 26.4586 107.292 26.8871 107.997 27.1597C108.722 27.4128 109.584 27.5394 110.584 27.5394C112.19 27.5394 113.424 27.2084 114.286 26.5463C115.148 25.8842 115.579 24.9105 115.579 23.6253H116.138V26.4879H115.374C115.119 27.5978 114.502 28.5033 113.522 29.2043C112.543 29.9054 111.22 30.2559 109.555 30.2559Z" fill="white"/>
<path d="M124.834 31.5703H121.661V17.0532H124.834V31.5703ZM124.834 15.3591H121.661V12H124.834V15.3591Z" fill="white"/>
<path d="M135.15 31.8624C133.543 31.8624 132.142 31.5508 130.947 30.9277C129.752 30.2851 128.822 29.3991 128.155 28.2696C127.509 27.1207 127.186 25.8063 127.186 24.3264C127.186 22.8075 127.509 21.4833 128.155 20.3539C128.822 19.2245 129.752 18.3482 130.947 17.725C132.142 17.0824 133.543 16.7611 135.15 16.7611C136.619 16.7611 137.922 17.0143 139.058 17.5206C140.195 18.0269 141.086 18.7376 141.732 19.6529C142.399 20.5486 142.732 21.6099 142.732 22.8367V23.1288H139.587V22.9535C139.587 21.8241 139.195 20.9868 138.412 20.4415C137.628 19.8768 136.521 19.5944 135.091 19.5944C133.445 19.5944 132.24 19.9936 131.476 20.792C130.712 21.5709 130.33 22.7491 130.33 24.3264C130.33 25.8842 130.712 27.0623 131.476 27.8607C132.24 28.6396 133.445 29.0291 135.091 29.0291C136.521 29.0291 137.628 28.7565 138.412 28.2112C139.195 27.6465 139.587 26.7994 139.587 25.67V25.4655H142.732V25.7868C142.732 26.9942 142.399 28.0554 141.732 28.9707C141.086 29.8859 140.195 30.5966 139.058 31.1029C137.922 31.6092 136.619 31.8624 135.15 31.8624Z" fill="white"/>
<path d="M153.275 31.5703H150.101V12H160.328C161.817 12 163.1 12.2239 164.178 12.6718C165.275 13.1197 166.107 13.772 166.676 14.6288C167.263 15.4857 167.557 16.5275 167.557 17.7542C167.557 18.8447 167.322 19.7794 166.852 20.5584C166.401 21.3373 165.735 21.9507 164.854 22.3985C163.991 22.8464 162.943 23.1093 161.709 23.1872V23.3917C162.473 23.5864 163.061 23.9077 163.472 24.3556C163.903 24.784 164.295 25.3097 164.648 25.9329L167.939 31.5703H164.295L161.151 26.1666C160.857 25.6408 160.534 25.2221 160.181 24.9105C159.848 24.5795 159.427 24.3458 158.917 24.2095C158.408 24.0537 157.732 23.9758 156.889 23.9758H153.275V31.5703ZM153.275 14.8333V21.5515H160.298C161.611 21.5515 162.6 21.2983 163.267 20.792C163.933 20.2857 164.266 19.4192 164.266 18.1924C164.266 17.0045 163.933 16.1477 163.267 15.622C162.6 15.0962 161.611 14.8333 160.298 14.8333H153.275Z" fill="white"/>
<path d="M183.658 31.5703H180.748V27.8315L180.543 27.7439V22.7783C180.543 21.5709 180.249 20.7336 179.661 20.2663C179.093 19.7794 178.104 19.536 176.693 19.536C175.341 19.536 174.332 19.7697 173.666 20.237C173 20.7044 172.667 21.4736 172.667 22.5446V22.6614H169.522V22.5446C169.522 21.4346 169.816 20.4512 170.404 19.5944C170.992 18.7182 171.834 18.0269 172.931 17.5206C174.048 17.0143 175.38 16.7611 176.928 16.7611C178.476 16.7611 179.74 17.024 180.719 17.5498C181.718 18.0561 182.453 18.7571 182.923 19.6529C183.413 20.5486 183.658 21.5807 183.658 22.7491V31.5703ZM174.136 31.8624C172.628 31.8624 171.423 31.5313 170.522 30.8693C169.64 30.1877 169.199 29.253 169.199 28.0652C169.199 27.3057 169.385 26.6728 169.758 26.1666C170.149 25.6408 170.698 25.2319 171.403 24.9398C172.109 24.6477 172.941 24.4432 173.901 24.3264L180.837 23.5961V25.4655L174.812 26.1373C173.989 26.2347 173.372 26.41 172.961 26.6631C172.569 26.8968 172.373 27.296 172.373 27.8607C172.373 28.4449 172.579 28.883 172.99 29.1751C173.421 29.4477 174.087 29.5841 174.989 29.5841C176.105 29.5841 177.075 29.4477 177.898 29.1751C178.721 28.883 179.367 28.4351 179.837 27.8315C180.308 27.2278 180.543 26.4489 180.543 25.4947L180.954 25.5532V27.9483H180.543C180.151 29.1751 179.397 30.139 178.28 30.8401C177.183 31.5216 175.802 31.8624 174.136 31.8624Z" fill="white"/>
<path d="M201.743 31.5703H198.569V23.6838C198.569 22.3207 198.236 21.2983 197.57 20.6168C196.924 19.9352 195.836 19.5944 194.308 19.5944C192.721 19.5944 191.546 20.0034 190.782 20.8212C190.037 21.6196 189.665 22.8075 189.665 24.3848L189.106 24.414L188.96 21.5515H189.606C189.763 20.7336 190.076 19.9644 190.546 19.2439C191.036 18.504 191.702 17.91 192.545 17.4622C193.407 16.9948 194.455 16.7611 195.689 16.7611C197.041 16.7611 198.168 17.0338 199.069 17.579C199.97 18.1242 200.636 18.8545 201.067 19.7697C201.518 20.6849 201.743 21.7073 201.743 22.8367V31.5703ZM189.665 31.5703H186.491V17.0532H189.4V21.6099L189.665 21.7559V31.5703Z" fill="white"/>
<path d="M219.97 31.5703H216.238L211.918 25.6408H206.334V22.8075H211.918L216.297 17.0532H220L214.504 24.0343L219.97 31.5703ZM207.745 31.5703H204.571V12H207.745V31.5703Z" fill="white"/>
<path d="M62.8197 48.1056H60.737V46.9059H62.8197C63.1603 46.9059 63.4362 46.8504 63.6472 46.7393C63.862 46.6245 64.0193 46.469 64.1193 46.2728C64.2193 46.0728 64.2693 45.8451 64.2693 45.5896C64.2693 45.3416 64.2193 45.1102 64.1193 44.8954C64.0193 44.6807 63.862 44.5066 63.6472 44.3733C63.4362 44.24 63.1603 44.1734 62.8197 44.1734H61.2368V51.0547H59.7095V42.9682H62.8197C63.4491 42.9682 63.986 43.0811 64.4303 43.307C64.8783 43.5291 65.219 43.8383 65.4522 44.2345C65.6892 44.627 65.8077 45.075 65.8077 45.5785C65.8077 46.1006 65.6892 46.5505 65.4522 46.9281C65.219 47.3058 64.8783 47.5965 64.4303 47.8001C63.986 48.0037 63.4491 48.1056 62.8197 48.1056ZM69.5177 51.1658C69.0623 51.1658 68.6531 51.0917 68.2903 50.9436C67.9274 50.7955 67.6183 50.59 67.3628 50.3271C67.111 50.0605 66.9166 49.7514 66.7796 49.3996C66.6463 49.0442 66.5797 48.6628 66.5797 48.2555V48.0334C66.5797 47.5705 66.6463 47.1503 66.7796 46.7726C66.9129 46.3913 67.1017 46.0636 67.3461 45.7896C67.5905 45.5156 67.883 45.3045 68.2236 45.1564C68.5643 45.0083 68.9401 44.9343 69.3511 44.9343C69.7769 44.9343 70.1527 45.0065 70.4785 45.1509C70.8044 45.2916 71.0765 45.4915 71.2949 45.7507C71.5134 46.0099 71.6782 46.3209 71.7892 46.6838C71.9003 47.0429 71.9559 47.4409 71.9559 47.8779V48.4943H67.2461V47.4835H70.5118V47.3724C70.5044 47.1392 70.46 46.9263 70.3786 46.7337C70.2971 46.5375 70.1712 46.382 70.0009 46.2672C69.8306 46.1487 69.6103 46.0895 69.34 46.0895C69.1215 46.0895 68.9308 46.1376 68.7679 46.2339C68.6087 46.3265 68.4754 46.4598 68.368 46.6338C68.2644 46.8041 68.1866 47.0077 68.1348 47.2447C68.0829 47.4817 68.057 47.7446 68.057 48.0334V48.2555C68.057 48.5073 68.0903 48.7406 68.157 48.9553C68.2273 49.1701 68.3292 49.357 68.4625 49.5163C68.5995 49.6718 68.7624 49.794 68.9512 49.8828C69.1437 49.968 69.3622 50.0106 69.6066 50.0106C69.9139 50.0106 70.1916 49.9513 70.4396 49.8328C70.6914 49.7106 70.9099 49.5311 71.095 49.2941L71.8337 50.0605C71.7078 50.2457 71.5375 50.4234 71.3227 50.5937C71.1117 50.764 70.8562 50.9029 70.5563 51.0103C70.2564 51.1139 69.9102 51.1658 69.5177 51.1658ZM74.4218 48.9609L76.61 45.0454H78.0818V51.0547H76.61V47.1336L74.4218 51.0547H72.95V45.0454H74.4218V48.9609ZM76.3379 42.6849H77.4042C77.4042 42.996 77.3283 43.2718 77.1765 43.5125C77.0247 43.7531 76.8081 43.942 76.5267 44.079C76.249 44.2123 75.9195 44.2789 75.5381 44.2789C74.9642 44.2789 74.5088 44.1308 74.1719 43.8346C73.8349 43.5384 73.6665 43.1552 73.6665 42.6849H74.7328C74.7328 42.8812 74.7939 43.0571 74.9161 43.2126C75.0383 43.3681 75.2456 43.4458 75.5381 43.4458C75.8306 43.4458 76.0361 43.3681 76.1546 43.2126C76.2768 43.0571 76.3379 42.8812 76.3379 42.6849ZM82.3306 45.0454V51.0547H80.8588V45.0454H82.3306ZM84.2855 45.0454V46.1895H78.9371V45.0454H84.2855ZM86.6293 48.9609L88.8175 45.0454H90.2893V51.0547H88.8175V47.1336L86.6293 51.0547H85.1575V45.0454H86.6293V48.9609ZM95.7266 47.5113V48.661H92.6442V47.5113H95.7266ZM93.1052 45.0454V51.0547H91.6334V45.0454H93.1052ZM96.7541 45.0454V51.0547H95.2767V45.0454H96.7541ZM102.125 45.0454V46.2061H99.5643V51.0547H98.0981V45.0454H102.125ZM104.346 48.9609L106.535 45.0454H108.006V51.0547H106.535V47.1336L104.346 51.0547H102.874V45.0454H104.346V48.9609ZM110.722 49.7329L110.711 50.7492C110.711 51.1454 110.613 51.5471 110.417 51.9544C110.22 52.3617 109.967 52.6986 109.656 52.9652L108.878 52.5376C108.978 52.371 109.071 52.2025 109.156 52.0322C109.245 51.8619 109.315 51.6767 109.367 51.4768C109.423 51.2805 109.45 51.0602 109.45 50.8159V49.7329H110.722ZM118.953 47.5113V48.661H115.871V47.5113H118.953ZM116.332 45.0454V51.0547H114.86V45.0454H116.332ZM119.981 45.0454V51.0547H118.503V45.0454H119.981ZM121.052 48.1111V47.9945C121.052 47.5539 121.115 47.1484 121.241 46.7782C121.367 46.4042 121.55 46.0802 121.791 45.8062C122.032 45.5323 122.326 45.3194 122.674 45.1675C123.022 45.012 123.418 44.9343 123.863 44.9343C124.314 44.9343 124.714 45.012 125.062 45.1675C125.414 45.3194 125.71 45.5323 125.951 45.8062C126.192 46.0802 126.375 46.4042 126.501 46.7782C126.627 47.1484 126.69 47.5539 126.69 47.9945V48.1111C126.69 48.548 126.627 48.9535 126.501 49.3274C126.375 49.6977 126.192 50.0217 125.951 50.2994C125.71 50.5733 125.416 50.7862 125.068 50.9381C124.72 51.0899 124.322 51.1658 123.874 51.1658C123.429 51.1658 123.031 51.0899 122.68 50.9381C122.328 50.7862 122.032 50.5733 121.791 50.2994C121.55 50.0217 121.367 49.6977 121.241 49.3274C121.115 48.9535 121.052 48.548 121.052 48.1111ZM122.519 47.9945V48.1111C122.519 48.374 122.545 48.6202 122.596 48.8498C122.648 49.0793 122.728 49.2811 122.835 49.4552C122.943 49.6292 123.081 49.7662 123.252 49.8662C123.426 49.9624 123.633 50.0106 123.874 50.0106C124.111 50.0106 124.314 49.9624 124.485 49.8662C124.655 49.7662 124.794 49.6292 124.901 49.4552C125.012 49.2811 125.094 49.0793 125.146 48.8498C125.197 48.6202 125.223 48.374 125.223 48.1111V47.9945C125.223 47.7353 125.197 47.4928 125.146 47.2669C125.094 47.0374 125.012 46.8356 124.901 46.6615C124.794 46.4838 124.653 46.345 124.479 46.245C124.309 46.1413 124.103 46.0895 123.863 46.0895C123.626 46.0895 123.422 46.1413 123.252 46.245C123.081 46.345 122.943 46.4838 122.835 46.6615C122.728 46.8356 122.648 47.0374 122.596 47.2669C122.545 47.4928 122.519 47.7353 122.519 47.9945ZM130.711 48.511H128.806L128.795 47.5168H130.361C130.594 47.5168 130.785 47.4928 130.933 47.4446C131.081 47.3965 131.19 47.3243 131.261 47.228C131.335 47.1318 131.372 47.0151 131.372 46.8781C131.372 46.7597 131.349 46.6578 131.305 46.5727C131.261 46.4838 131.194 46.4116 131.105 46.3561C131.02 46.3005 130.911 46.2598 130.777 46.2339C130.648 46.2043 130.496 46.1895 130.322 46.1895H129.328V51.0547H127.856V45.0454H130.322C130.711 45.0454 131.061 45.0805 131.372 45.1509C131.683 45.2175 131.947 45.3194 132.166 45.4563C132.384 45.5933 132.551 45.7674 132.666 45.9784C132.784 46.1858 132.843 46.4301 132.843 46.7115C132.843 46.8967 132.803 47.0707 132.721 47.2336C132.64 47.3965 132.519 47.5409 132.36 47.6668C132.201 47.7927 132.005 47.8964 131.771 47.9778C131.538 48.0556 131.272 48.1037 130.972 48.1222L130.711 48.511ZM130.711 51.0547H128.411L128.956 49.9106H130.711C130.925 49.9106 131.103 49.8847 131.244 49.8328C131.385 49.7773 131.488 49.6977 131.555 49.594C131.625 49.4903 131.66 49.3644 131.66 49.2163C131.66 49.0719 131.627 48.9479 131.56 48.8442C131.497 48.7369 131.396 48.6554 131.255 48.5999C131.118 48.5406 130.937 48.511 130.711 48.511H129.194L129.206 47.5168H130.966L131.355 47.9112C131.755 47.9371 132.086 48.0186 132.349 48.1555C132.612 48.2888 132.808 48.4592 132.938 48.6665C133.067 48.8701 133.132 49.0942 133.132 49.3385C133.132 49.6236 133.078 49.8736 132.971 50.0883C132.864 50.3031 132.706 50.4826 132.499 50.627C132.292 50.7677 132.038 50.8751 131.738 50.9492C131.438 51.0195 131.096 51.0547 130.711 51.0547ZM133.937 48.1111V47.9945C133.937 47.5539 134 47.1484 134.126 46.7782C134.252 46.4042 134.435 46.0802 134.676 45.8062C134.917 45.5323 135.211 45.3194 135.559 45.1675C135.907 45.012 136.303 44.9343 136.748 44.9343C137.199 44.9343 137.599 45.012 137.947 45.1675C138.299 45.3194 138.595 45.5323 138.836 45.8062C139.077 46.0802 139.26 46.4042 139.386 46.7782C139.512 47.1484 139.575 47.5539 139.575 47.9945V48.1111C139.575 48.548 139.512 48.9535 139.386 49.3274C139.26 49.6977 139.077 50.0217 138.836 50.2994C138.595 50.5733 138.301 50.7862 137.953 50.9381C137.605 51.0899 137.207 51.1658 136.759 51.1658C136.315 51.1658 135.917 51.0899 135.565 50.9381C135.213 50.7862 134.917 50.5733 134.676 50.2994C134.435 50.0217 134.252 49.6977 134.126 49.3274C134 48.9535 133.937 48.548 133.937 48.1111ZM135.404 47.9945V48.1111C135.404 48.374 135.43 48.6202 135.481 48.8498C135.533 49.0793 135.613 49.2811 135.72 49.4552C135.828 49.6292 135.967 49.7662 136.137 49.8662C136.311 49.9624 136.518 50.0106 136.759 50.0106C136.996 50.0106 137.199 49.9624 137.37 49.8662C137.54 49.7662 137.679 49.6292 137.786 49.4552C137.897 49.2811 137.979 49.0793 138.031 48.8498C138.083 48.6202 138.108 48.374 138.108 48.1111V47.9945C138.108 47.7353 138.083 47.4928 138.031 47.2669C137.979 47.0374 137.897 46.8356 137.786 46.6615C137.679 46.4838 137.538 46.345 137.364 46.245C137.194 46.1413 136.988 46.0895 136.748 46.0895C136.511 46.0895 136.307 46.1413 136.137 46.245C135.967 46.345 135.828 46.4838 135.72 46.6615C135.613 46.8356 135.533 47.0374 135.481 47.2669C135.43 47.4928 135.404 47.7353 135.404 47.9945ZM143.107 50.0106C143.314 50.0106 143.499 49.9698 143.662 49.8884C143.825 49.8069 143.955 49.6921 144.051 49.544C144.151 49.3959 144.205 49.2237 144.212 49.0275H145.595C145.588 49.4348 145.473 49.7995 145.251 50.1216C145.029 50.4438 144.732 50.6992 144.362 50.8881C143.996 51.0732 143.585 51.1658 143.129 51.1658C142.666 51.1658 142.263 51.088 141.918 50.9325C141.574 50.777 141.287 50.5604 141.058 50.2827C140.832 50.005 140.661 49.6829 140.547 49.3163C140.436 48.9498 140.38 48.5573 140.38 48.1389V47.9612C140.38 47.5428 140.436 47.1503 140.547 46.7837C140.661 46.4172 140.832 46.095 141.058 45.8174C141.287 45.5397 141.574 45.3231 141.918 45.1675C142.263 45.012 142.665 44.9343 143.124 44.9343C143.609 44.9343 144.035 45.0287 144.401 45.2175C144.771 45.4064 145.06 45.6729 145.267 46.0173C145.479 46.3616 145.588 46.7671 145.595 47.2336H144.212C144.205 47.0188 144.157 46.8263 144.068 46.656C143.979 46.4857 143.853 46.3487 143.69 46.245C143.527 46.1413 143.329 46.0895 143.096 46.0895C142.848 46.0895 142.64 46.1413 142.474 46.245C142.311 46.3487 142.183 46.4912 142.091 46.6727C142.002 46.8504 141.939 47.0503 141.902 47.2725C141.868 47.4909 141.852 47.7205 141.852 47.9612V48.1389C141.852 48.3833 141.868 48.6165 141.902 48.8387C141.939 49.0608 142.002 49.2608 142.091 49.4385C142.183 49.6125 142.311 49.7514 142.474 49.855C142.64 49.9587 142.852 50.0106 143.107 50.0106ZM149.488 45.0454V51.0547H148.017V45.0454H149.488ZM151.443 45.0454V46.1895H146.095V45.0454H151.443ZM153.787 48.9609L155.975 45.0454H157.447V51.0547H155.975V47.1336L153.787 51.0547H152.315V45.0454H153.787V48.9609ZM160.163 49.7329L160.152 50.7492C160.152 51.1454 160.054 51.5471 159.858 51.9544C159.661 52.3617 159.408 52.6986 159.097 52.9652L158.319 52.5376C158.419 52.371 158.512 52.2025 158.597 52.0322C158.686 51.8619 158.756 51.6767 158.808 51.4768C158.863 51.2805 158.891 51.0602 158.891 50.8159V49.7329H160.163ZM167.6 49.7773V47.0059C167.6 46.8022 167.565 46.6264 167.494 46.4783C167.424 46.3302 167.316 46.2154 167.172 46.1339C167.028 46.0525 166.844 46.0117 166.622 46.0117C166.426 46.0117 166.254 46.0451 166.106 46.1117C165.961 46.1784 165.85 46.2728 165.773 46.395C165.695 46.5134 165.656 46.6504 165.656 46.8059H164.184C164.184 46.5579 164.243 46.3228 164.362 46.1006C164.48 45.8747 164.649 45.6748 164.867 45.5008C165.089 45.3231 165.354 45.1842 165.661 45.0842C165.972 44.9843 166.32 44.9343 166.706 44.9343C167.161 44.9343 167.566 45.012 167.922 45.1675C168.281 45.3194 168.562 45.5489 168.766 45.8562C168.973 46.1635 169.077 46.5505 169.077 47.017V49.6384C169.077 49.9384 169.096 50.1957 169.133 50.4104C169.173 50.6215 169.233 50.8048 169.31 50.9603V51.0547H167.816C167.746 50.9029 167.692 50.7103 167.655 50.4771C167.618 50.2401 167.6 50.0068 167.6 49.7773ZM167.805 47.3947L167.816 48.2666H166.889C166.659 48.2666 166.457 48.2907 166.283 48.3388C166.109 48.3833 165.967 48.4499 165.856 48.5388C165.745 48.6239 165.661 48.7276 165.606 48.8498C165.55 48.9683 165.523 49.1034 165.523 49.2552C165.523 49.4033 165.556 49.5366 165.623 49.6551C165.693 49.7736 165.793 49.868 165.922 49.9384C166.056 50.005 166.211 50.0383 166.389 50.0383C166.648 50.0383 166.874 49.9865 167.067 49.8828C167.259 49.7754 167.409 49.6458 167.516 49.494C167.624 49.3422 167.681 49.1978 167.689 49.0608L168.111 49.694C168.059 49.8458 167.981 50.0068 167.877 50.1772C167.774 50.3475 167.64 50.5067 167.478 50.6548C167.315 50.8029 167.118 50.9251 166.889 51.0214C166.659 51.1176 166.393 51.1658 166.089 51.1658C165.7 51.1658 165.352 51.088 165.045 50.9325C164.738 50.777 164.495 50.5641 164.317 50.2938C164.14 50.0235 164.051 49.7162 164.051 49.3719C164.051 49.0534 164.11 48.772 164.229 48.5277C164.347 48.2833 164.523 48.0778 164.756 47.9112C164.989 47.7409 165.278 47.6131 165.623 47.528C165.971 47.4391 166.369 47.3947 166.817 47.3947H167.805ZM174.503 47.5113V48.661H171.421V47.5113H174.503ZM171.882 45.0454V51.0547H170.41V45.0454H171.882ZM175.531 45.0454V51.0547H174.053V45.0454H175.531ZM180.174 49.7773V47.0059C180.174 46.8022 180.139 46.6264 180.068 46.4783C179.998 46.3302 179.891 46.2154 179.746 46.1339C179.602 46.0525 179.418 46.0117 179.196 46.0117C179 46.0117 178.828 46.0451 178.68 46.1117C178.535 46.1784 178.424 46.2728 178.347 46.395C178.269 46.5134 178.23 46.6504 178.23 46.8059H176.758C176.758 46.5579 176.817 46.3228 176.936 46.1006C177.054 45.8747 177.223 45.6748 177.441 45.5008C177.663 45.3231 177.928 45.1842 178.235 45.0842C178.546 44.9843 178.895 44.9343 179.28 44.9343C179.735 44.9343 180.14 45.012 180.496 45.1675C180.855 45.3194 181.136 45.5489 181.34 45.8562C181.547 46.1635 181.651 46.5505 181.651 47.017V49.6384C181.651 49.9384 181.67 50.1957 181.707 50.4104C181.747 50.6215 181.807 50.8048 181.884 50.9603V51.0547H180.39C180.32 50.9029 180.266 50.7103 180.229 50.4771C180.192 50.2401 180.174 50.0068 180.174 49.7773ZM180.379 47.3947L180.39 48.2666H179.463C179.233 48.2666 179.032 48.2907 178.858 48.3388C178.683 48.3833 178.541 48.4499 178.43 48.5388C178.319 48.6239 178.235 48.7276 178.18 48.8498C178.124 48.9683 178.097 49.1034 178.097 49.2552C178.097 49.4033 178.13 49.5366 178.197 49.6551C178.267 49.7736 178.367 49.868 178.497 49.9384C178.63 50.005 178.785 50.0383 178.963 50.0383C179.222 50.0383 179.448 49.9865 179.641 49.8828C179.833 49.7754 179.983 49.6458 180.09 49.494C180.198 49.3422 180.255 49.1978 180.263 49.0608L180.685 49.694C180.633 49.8458 180.555 50.0068 180.451 50.1772C180.348 50.3475 180.215 50.5067 180.052 50.6548C179.889 50.8029 179.692 50.9251 179.463 51.0214C179.233 51.1176 178.967 51.1658 178.663 51.1658C178.274 51.1658 177.926 51.088 177.619 50.9325C177.312 50.777 177.069 50.5641 176.891 50.2938C176.714 50.0235 176.625 49.7162 176.625 49.3719C176.625 49.0534 176.684 48.772 176.803 48.5277C176.921 48.2833 177.097 48.0778 177.33 47.9112C177.563 47.7409 177.852 47.6131 178.197 47.528C178.545 47.4391 178.943 47.3947 179.391 47.3947H180.379ZM187.011 45.0454V46.2061H184.067V45.0454H187.011ZM188.116 45.0454V51.0547H186.65V45.0454H188.116ZM183.701 45.0454H185.15L184.989 48.0445C184.963 48.4851 184.917 48.872 184.85 49.2052C184.784 49.5348 184.695 49.818 184.584 50.055C184.473 50.2882 184.337 50.4789 184.178 50.627C184.019 50.7751 183.834 50.8844 183.623 50.9547C183.415 51.0214 183.182 51.0547 182.923 51.0547H182.473L182.456 49.8717L182.668 49.855C182.797 49.8439 182.908 49.8088 183.001 49.7495C183.097 49.6903 183.178 49.6051 183.245 49.494C183.315 49.383 183.373 49.2404 183.417 49.0664C183.465 48.8887 183.502 48.6813 183.528 48.4443C183.558 48.2037 183.578 47.926 183.589 47.6113L183.701 45.0454ZM190.943 48.9609L193.131 45.0454H194.603V51.0547H193.131V47.1336L190.943 51.0547H189.471V45.0454H190.943V48.9609ZM198.852 45.0454V51.0547H197.38V45.0454H198.852ZM200.807 45.0454V46.1895H195.458V45.0454H200.807ZM203.15 48.9609L205.339 45.0454H206.81V51.0547H205.339V47.1336L203.15 51.0547H201.679V45.0454H203.15V48.9609ZM209.709 45.0454V51.0547H208.243V45.0454H209.709ZM213.625 45.0454L210.976 48.7332H209.415L209.232 47.3891H210.315L211.776 45.0454H213.625ZM211.864 51.0547L210.22 48.4777L211.442 47.7112L213.814 51.0547H211.864ZM217.796 49.7773V47.0059C217.796 46.8022 217.761 46.6264 217.69 46.4783C217.62 46.3302 217.513 46.2154 217.368 46.1339C217.224 46.0525 217.041 46.0117 216.818 46.0117C216.622 46.0117 216.45 46.0451 216.302 46.1117C216.158 46.1784 216.046 46.2728 215.969 46.395C215.891 46.5134 215.852 46.6504 215.852 46.8059H214.38C214.38 46.5579 214.44 46.3228 214.558 46.1006C214.677 45.8747 214.845 45.6748 215.063 45.5008C215.286 45.3231 215.55 45.1842 215.858 45.0842C216.169 44.9843 216.517 44.9343 216.902 44.9343C217.357 44.9343 217.763 45.012 218.118 45.1675C218.477 45.3194 218.759 45.5489 218.962 45.8562C219.17 46.1635 219.273 46.5505 219.273 47.017V49.6384C219.273 49.9384 219.292 50.1957 219.329 50.4104C219.37 50.6215 219.429 50.8048 219.507 50.9603V51.0547H218.013C217.942 50.9029 217.889 50.7103 217.852 50.4771C217.814 50.2401 217.796 50.0068 217.796 49.7773ZM218.001 47.3947L218.013 48.2666H217.085C216.856 48.2666 216.654 48.2907 216.48 48.3388C216.306 48.3833 216.163 48.4499 216.052 48.5388C215.941 48.6239 215.858 48.7276 215.802 48.8498C215.747 48.9683 215.719 49.1034 215.719 49.2552C215.719 49.4033 215.752 49.5366 215.819 49.6551C215.889 49.7736 215.989 49.868 216.119 49.9384C216.252 50.005 216.408 50.0383 216.585 50.0383C216.844 50.0383 217.07 49.9865 217.263 49.8828C217.455 49.7754 217.605 49.6458 217.713 49.494C217.82 49.3422 217.877 49.1978 217.885 49.0608L218.307 49.694C218.255 49.8458 218.177 50.0068 218.074 50.1772C217.97 50.3475 217.837 50.5067 217.674 50.6548C217.511 50.8029 217.315 50.9251 217.085 51.0214C216.856 51.1176 216.589 51.1658 216.285 51.1658C215.897 51.1658 215.548 51.088 215.241 50.9325C214.934 50.777 214.691 50.5641 214.514 50.2938C214.336 50.0235 214.247 49.7162 214.247 49.3719C214.247 49.0534 214.306 48.772 214.425 48.5277C214.543 48.2833 214.719 48.0778 214.952 47.9112C215.186 47.7409 215.474 47.6131 215.819 47.528C216.167 47.4391 216.565 47.3947 217.013 47.3947H218.001Z" fill="white"/>
<defs>
<linearGradient id="paint0_linear_1001_2348" x1="36.0791" y1="65.7597" x2="15.4047" y2="14.6116" gradientUnits="userSpaceOnUse">
<stop offset="0.17" stop-color="#2C89FF"/>
<stop offset="1" stop-color="#70FEDC"/>
</linearGradient>
<linearGradient id="paint1_linear_1001_2348" x1="26.9088" y1="69.4677" x2="6.23325" y2="18.3185" gradientUnits="userSpaceOnUse">
<stop offset="0.17" stop-color="#2C89FF"/>
<stop offset="1" stop-color="#70FEDC"/>
</linearGradient>
<linearGradient id="paint2_linear_1001_2348" x1="18.4324" y1="72.8923" x2="-2.24205" y2="21.7443" gradientUnits="userSpaceOnUse">
<stop offset="0.17" stop-color="#2C89FF"/>
<stop offset="1" stop-color="#70FEDC"/>
</linearGradient>
<linearGradient id="paint3_linear_1001_2348" x1="22.3667" y1="71.3031" x2="1.69228" y2="20.1551" gradientUnits="userSpaceOnUse">
<stop offset="0.17" stop-color="#2C89FF"/>
<stop offset="1" stop-color="#70FEDC"/>
</linearGradient>
<linearGradient id="paint4_linear_1001_2348" x1="41.2364" y1="63.6764" x2="20.5608" y2="12.5272" gradientUnits="userSpaceOnUse">
<stop offset="0.17" stop-color="#2C89FF"/>
<stop offset="1" stop-color="#70FEDC"/>
</linearGradient>
<linearGradient id="paint5_linear_1001_2348" x1="33.8137" y1="66.6758" x2="13.1392" y2="15.5278" gradientUnits="userSpaceOnUse">
<stop offset="0.17" stop-color="#2C89FF"/>
<stop offset="1" stop-color="#70FEDC"/>
</linearGradient>
</defs>
</svg>
