<svg width="22" height="19" viewBox="0 0 22 19" fill="none" xmlns="http://www.w3.org/2000/svg">
<path d="M1 4.40909V2.95454C1 2.15122 1.63959 1.5 2.42857 1.5H19.5715C20.3604 1.5 21 2.15122 21 2.95455V4.40909M1 4.40909L9.0778 9.69639M1 4.40909V15.3182M21 4.40909L12.9223 9.69639M21 4.40909V15.3182M9.0778 9.69639L10.2275 10.4489C10.6981 10.7569 11.3019 10.7569 11.7725 10.4489L12.9223 9.69639M9.0778 9.69639L1 15.3182M1 15.3182V16.0455C1 16.8488 1.63959 17.5 2.42857 17.5H19.5715C20.3605 17.5 21 16.8488 21 16.0455V15.3182M12.9223 9.69639L21 15.3182" stroke="#2389FB" stroke-width="1.36646"/>
</svg>
