<svg width="21" height="21" viewBox="0 0 21 21" fill="none" xmlns="http://www.w3.org/2000/svg">
<rect x="0.474609" y="0.5" width="20" height="20" rx="10" fill="#2389FB"/>
<path d="M6.03865 10.146C6.03865 10.146 10.1076 8.43226 11.5188 7.8288C12.0597 7.58744 13.8943 6.81501 13.8943 6.81501C13.8943 6.81501 14.741 6.4771 14.6704 7.29777C14.6469 7.63571 14.4587 8.81845 14.2706 10.0978C13.9883 11.9081 13.6826 13.8874 13.6826 13.8874C13.6826 13.8874 13.6356 14.4426 13.2357 14.5391C12.8359 14.6357 12.1773 14.2012 12.0597 14.1046C11.9656 14.0322 10.2957 12.946 9.68422 12.415C9.51958 12.2702 9.33143 11.9805 9.70772 11.6426C10.5545 10.846 11.5658 9.8564 12.1773 9.22882C12.4596 8.93915 12.7418 8.26329 11.5658 9.08396C9.8959 10.2667 8.24951 11.3771 8.24951 11.3771C8.24951 11.3771 7.87318 11.6184 7.1676 11.4012C6.46198 11.184 5.63878 10.8943 5.63878 10.8943C5.63878 10.8943 5.07434 10.5322 6.03865 10.146Z" fill="white"/>
</svg>
