<svg width="21" height="21" viewBox="0 0 21 21" fill="none" xmlns="http://www.w3.org/2000/svg">
<rect x="0.474609" y="0.5" width="20" height="20" rx="10" fill="#2389FB"/>
<path d="M5.47461 15.13L6.19209 12.4622C5.61346 11.423 5.42962 10.2103 5.67431 9.0467C5.919 7.88308 6.57581 6.84658 7.5242 6.1274C8.47259 5.40822 9.64895 5.0546 10.8374 5.13143C12.0259 5.20826 13.1468 5.71038 13.9943 6.54567C14.8419 7.38095 15.3593 8.49336 15.4516 9.67877C15.544 10.8642 15.205 12.0431 14.497 12.9991C13.7889 13.9552 12.7593 14.6242 11.597 14.8835C10.4347 15.1429 9.21774 14.975 8.16939 14.4109L5.47461 15.13ZM8.29932 13.4126L8.46598 13.5113C9.22532 13.9606 10.1122 14.1466 10.9885 14.0401C11.8647 13.9337 12.6811 13.5409 13.3104 12.9229C13.9396 12.3049 14.3465 11.4965 14.4675 10.6235C14.5885 9.7506 14.4168 8.86224 13.9793 8.09687C13.5417 7.33151 12.8629 6.73213 12.0485 6.39216C11.2341 6.05218 10.33 5.9907 9.47696 6.21729C8.62393 6.44388 7.86994 6.94582 7.33249 7.64489C6.79504 8.34396 6.50432 9.20088 6.50563 10.0821C6.50492 10.8128 6.70733 11.5294 7.09035 12.152L7.19486 12.324L6.79375 13.813L8.29932 13.4126Z" fill="white"/>
<path fill-rule="evenodd" clip-rule="evenodd" d="M12.3438 10.7664C12.2461 10.6878 12.1317 10.6324 12.0093 10.6045C11.887 10.5767 11.7598 10.5771 11.6376 10.6057C11.454 10.6818 11.3354 10.9695 11.2168 11.1133C11.1917 11.1478 11.155 11.172 11.1134 11.1813C11.0718 11.1907 11.0282 11.1845 10.9908 11.1641C10.3186 10.9012 9.75515 10.4192 9.39199 9.79635C9.36102 9.75748 9.34636 9.70813 9.3511 9.65869C9.35584 9.60924 9.37961 9.56357 9.41741 9.53127C9.54973 9.4005 9.64689 9.23852 9.69988 9.06033C9.71165 8.86377 9.66655 8.66799 9.56995 8.49632C9.49527 8.25565 9.35314 8.04134 9.16036 7.87873C9.06093 7.83409 8.95069 7.81912 8.84293 7.83563C8.73517 7.85214 8.63449 7.89943 8.55305 7.97179C8.41166 8.09357 8.29944 8.24547 8.22465 8.41628C8.14985 8.5871 8.11439 8.77249 8.12087 8.9588C8.12131 9.06343 8.13459 9.16761 8.16042 9.26901C8.22601 9.51263 8.32688 9.74539 8.45984 9.95992C8.55576 10.1242 8.66043 10.2833 8.77338 10.4365C9.14046 10.9396 9.6019 11.3667 10.1321 11.6942C10.3981 11.8607 10.6825 11.996 10.9795 12.0975C11.288 12.2371 11.6287 12.2907 11.9653 12.2526C12.1571 12.2236 12.3388 12.148 12.4945 12.0325C12.6501 11.9169 12.7749 11.7649 12.8579 11.5899C12.9067 11.4842 12.9215 11.366 12.9003 11.2515C12.8494 11.0174 12.5359 10.8792 12.3438 10.7664Z" fill="white"/>
</svg>
