<svg width="45" height="33" viewBox="0 0 45 33" fill="none" xmlns="http://www.w3.org/2000/svg">
<path d="M36.0188 8.05185C35.7375 11.9563 32.8411 14.9641 29.6826 14.9641C26.5241 14.9641 23.6229 11.9573 23.3464 8.05185C23.0584 3.98997 25.878 1.13965 29.6826 1.13965C33.4872 1.13965 36.3068 4.0639 36.0188 8.05185Z" stroke="#F5F5F5" stroke-linecap="round" stroke-linejoin="round"/>
<path d="M29.6834 21.1079C23.4274 21.1079 17.4113 24.2155 15.9041 30.2675C15.7045 31.0682 16.2065 31.8602 17.0292 31.8602H42.3386C43.1613 31.8602 43.6605 31.0682 43.4637 30.2675C41.9566 24.1186 35.9405 21.1079 29.6834 21.1079Z" stroke="#F5F5F5" stroke-miterlimit="10"/>
<path d="M16.6278 9.77383C16.4031 12.892 14.0626 15.3478 11.5396 15.3478C9.01666 15.3478 6.67227 12.893 6.45146 9.77383C6.22202 6.5299 8.50017 4.21143 11.5396 4.21143C14.5791 4.21143 16.8572 6.58942 16.6278 9.77383Z" stroke="#F5F5F5" stroke-linecap="round" stroke-linejoin="round"/>
<path d="M17.2033 21.3004C15.4706 20.5065 13.5622 20.2012 11.5395 20.2012C6.54773 20.2012 1.73831 22.6828 0.533561 27.5166C0.375167 28.156 0.776432 28.7886 1.43305 28.7886H12.2115" stroke="#F5F5F5" stroke-miterlimit="10" stroke-linecap="round"/>
</svg>
