<svg width="39" height="33" viewBox="0 0 39 33" fill="none" xmlns="http://www.w3.org/2000/svg">
<path d="M36.7105 22.4935V29.8449C36.7105 31.0258 35.74 32.0001 34.5636 32.0001H2.86072C1.68436 32.0001 0.713867 31.0258 0.713867 29.8449V9.59174C0.713867 8.4108 1.68436 7.43652 2.86072 7.43652H34.5636C35.74 7.43652 36.7105 8.4108 36.7105 9.59174V16.9431" stroke="#F5F5F5" stroke-miterlimit="10" stroke-linecap="round" stroke-linejoin="round"/>
<path d="M36.7141 22.4933H26.3915C25.8327 22.4933 25.3916 22.0505 25.3916 21.4895V17.9467C25.3916 17.3857 25.8327 16.9429 26.3915 16.9429H36.7141C37.2728 16.9429 37.714 17.3857 37.714 17.9467V21.4895C37.714 22.0505 37.2728 22.4933 36.7141 22.4933Z" stroke="#F5F5F5" stroke-miterlimit="10" stroke-linecap="round" stroke-linejoin="round"/>
<path d="M4.03721 7.37675L4.00781 6.75676C4.00781 6.43201 4.24307 6.1663 4.56657 6.13678L31.2111 4.98535C31.5346 4.98535 31.7993 5.22155 31.8287 5.54631L31.8875 7.28818" stroke="#F5F5F5" stroke-miterlimit="10" stroke-linecap="round" stroke-linejoin="round"/>
<path d="M7.97754 5.98949C8.91863 3.09618 11.6242 1 14.8298 1C17.4472 1 20.2043 2.5 21.2004 5" stroke="#F5F5F5" stroke-miterlimit="10" stroke-linecap="round" stroke-linejoin="round"/>
</svg>
