<svg width="34" height="34" viewBox="0 0 34 34" fill="none" xmlns="http://www.w3.org/2000/svg">
<path d="M22.4883 2.5C22.4883 1.67157 23.1599 1 23.9883 1H31.4999C32.3283 1 32.9999 1.67157 32.9999 2.5V31.5C32.9999 32.3284 32.3283 33 31.4999 33H22.4883V2.5Z" stroke="#F5F5F5"/>
<path d="M11.7441 10.9419C11.7441 10.1135 12.4157 9.44189 13.2441 9.44189H22.2558V33H12.2441C11.968 33 11.7441 32.7762 11.7441 32.5V10.9419Z" stroke="#F5F5F5"/>
<path d="M1 19.3838C1 18.5554 1.67157 17.8838 2.5 17.8838H11.5116V33.0001H2.5C1.67157 33.0001 1 32.3285 1 31.5001V19.3838Z" stroke="#F5F5F5"/>
</svg>
