<svg width="39" height="39" viewBox="0 0 39 39" fill="none" xmlns="http://www.w3.org/2000/svg">
<path d="M19.0599 14.7578L19.044 14.7508L19.0279 14.7445C18.8812 14.6878 18.7472 14.603 18.6334 14.4951L14.1661 10.1161C14.1654 10.1154 14.1647 10.1147 14.1641 10.114C13.9278 9.87723 13.7954 9.557 13.7954 9.2235C13.7954 8.88906 13.9285 8.56797 14.1661 8.33095C14.4037 8.09387 14.7264 7.96037 15.0632 7.96037C15.3951 7.96037 15.7133 8.09001 15.9499 8.32066L16.9928 9.45751L18.2955 10.8775V8.9505V1.95C18.2955 1.6323 18.4219 1.32727 18.6476 1.10209C18.8734 0.876851 19.18 0.75 19.5 0.75C19.82 0.75 20.1266 0.876851 20.3524 1.10209C20.5781 1.32727 20.7045 1.6323 20.7045 1.95V8.9505V10.8775L22.0072 9.45751L23.0501 8.32065C23.2867 8.09001 23.6049 7.96037 23.9368 7.96037C24.2736 7.96037 24.5963 8.09387 24.8339 8.33095C25.0715 8.56797 25.2046 8.88906 25.2046 9.2235C25.2046 9.55698 25.0723 9.87719 24.836 10.114C24.8353 10.1147 24.8346 10.1154 24.8339 10.1161L20.3666 14.4951C20.2528 14.603 20.1188 14.6878 19.9721 14.7445L19.956 14.7508L19.9401 14.7578C19.8015 14.8189 19.6516 14.8505 19.5 14.8505C19.3484 14.8505 19.1985 14.8189 19.0599 14.7578ZM27.2727 12.45H33.1364C34.4931 12.45 35.794 12.9877 36.7529 13.9444C37.7117 14.9009 38.25 16.198 38.25 17.55V33.15C38.25 34.502 37.7117 35.7991 36.7529 36.7556C35.794 37.7123 34.4931 38.25 33.1364 38.25H5.86364C4.50685 38.25 3.20599 37.7123 2.24713 36.7556C1.28833 35.7991 0.75 34.502 0.75 33.15V17.55C0.75 16.198 1.28833 14.9009 2.24713 13.9444C3.20599 12.9877 4.50685 12.45 5.86364 12.45H11.7273C12.0473 12.45 12.3539 12.5769 12.5796 12.8021C12.8053 13.0273 12.9318 13.3323 12.9318 13.65C12.9318 13.9677 12.8053 14.2727 12.5796 14.4979C12.3539 14.7231 12.0473 14.85 11.7273 14.85H5.86364C5.14691 14.85 4.45919 15.134 3.95185 15.6402C3.44446 16.1464 3.15909 16.8334 3.15909 17.55V33.15C3.15909 33.8666 3.44446 34.5536 3.95185 35.0598C4.45919 35.566 5.14691 35.85 5.86364 35.85H33.1364C33.8531 35.85 34.5408 35.566 35.0481 35.0598C35.5555 34.5536 35.8409 33.8667 35.8409 33.15V17.55C35.8409 16.8333 35.5555 16.1464 35.0481 15.6402C34.5408 15.134 33.8531 14.85 33.1364 14.85H27.2727C26.9527 14.85 26.6461 14.7231 26.4204 14.4979C26.1947 14.2727 26.0682 13.9677 26.0682 13.65C26.0682 13.3323 26.1947 13.0273 26.4204 12.8021C26.6461 12.5769 26.9527 12.45 27.2727 12.45Z" fill="#F5F5F5" stroke="#0C0816" stroke-width="1.5"/>
</svg>
