<svg width="27" height="40" viewBox="0 0 27 40" fill="none" xmlns="http://www.w3.org/2000/svg">
<path d="M26.8163 19.2241C26.6634 19.0459 26.4528 19.0023 26.2413 18.9535C24.3405 18.5204 22.5526 17.7769 20.8347 16.8404C20.5828 16.7089 20.3889 16.4829 20.2925 16.2085C20.1497 15.8286 20.0404 15.4443 19.9354 15.0962V15.0918C19.8147 14.703 19.6925 14.3623 19.5175 14.1309L16.5174 7.23218C15.0173 3.78279 15.6081 4.87887 13.323 0.50636C13.0058 -0.10044 12.5601 -0.164742 12.1023 0.328976C11.0127 1.49873 9.92696 2.67488 8.84503 3.85743L8.24712 4.50784L8.29853 4.58175L11.0393 3.49602C11.0179 3.58249 10.9715 3.76357 10.9108 3.99047C10.3843 5.95574 8.0857 13.8796 7.77568 14.8552C7.7285 14.9764 7.7285 15.1117 7.77568 15.2329C7.85142 15.3896 8.02213 15.4495 8.08924 15.4716C12.4466 16.9129 13.4466 16.9875 13.4573 16.9883C14.6966 17.1627 15.9367 17.2839 17.1896 17.2159C17.8767 17.1684 18.5608 17.0823 19.2389 16.958C19.2011 17.0259 19.1932 17.0607 19.1739 17.0703C19.0775 17.1185 18.9785 17.1612 18.8775 17.1982C15.0459 18.5286 11.253 18.4221 7.50564 16.85C7.25137 16.7429 7.04423 16.7214 6.78421 16.8301C5.68918 17.2884 4.58128 17.7119 3.45339 18.0762C2.54646 18.3791 1.62197 18.6225 0.685438 18.8049C0.29685 18.8789 0.048984 19.0924 0.00469674 19.5101C-0.0374476 19.9047 0.209704 20.0814 0.518286 20.207C0.630433 20.2529 0.739006 20.309 0.850439 20.3549C7.34446 23.0688 14.0207 23.6944 20.879 22.2314C22.8122 21.8125 24.6983 21.1876 26.507 20.3667C27.0164 20.1361 27.1513 19.6136 26.8163 19.2241Z" fill="url(#paint0_linear_1200_4240)"/>
<path d="M13.9916 36.1193H13.9816C13.9816 35.0125 13.9455 33.9036 13.9936 32.7996C14.0283 32.0034 13.5785 31.9903 13.0311 32.002C12.4838 32.0137 11.9805 31.9331 12.0006 32.8009C12.0446 34.7295 12.0126 36.6628 12.0126 38.5939C12.0126 40.0679 12.0126 40.0568 13.4463 39.9666C13.8468 39.9411 14.0089 39.8013 13.9996 39.3688C13.9763 38.2889 13.9916 37.2027 13.9916 36.1193Z" fill="url(#paint1_linear_1200_4240)"/>
<path d="M4 28.5152V35C4.53049 34.9997 5.0392 34.7346 5.41426 34.2628C5.7893 33.791 6 33.1512 6 32.4841V26C5.46957 26 4.96086 26.265 4.58579 26.7367C4.21071 27.2084 4 27.8481 4 28.5152Z" fill="url(#paint2_linear_1200_4240)"/>
<path d="M8 31.5154V38C8.53034 38 9.03895 37.735 9.41397 37.2633C9.78906 36.7916 9.99984 36.1518 10 35.4846V29C9.46966 29 8.96106 29.265 8.58603 29.7367C8.21094 30.2084 8.00016 30.8482 8 31.5154Z" fill="url(#paint3_linear_1200_4240)"/>
<path d="M20 26V32.4841C20 33.1513 20.2107 33.7913 20.5858 34.2631C20.9608 34.7349 21.4696 35 22 35V28.5152C21.9998 27.848 21.7891 27.2083 21.414 26.7367C21.0389 26.265 20.5303 26 20 26Z" fill="url(#paint4_linear_1200_4240)"/>
<path d="M16 29V35.4849C16.0002 36.1519 16.2109 36.7917 16.586 37.2634C16.9611 37.735 17.4697 38 18 38V31.5151C17.9998 30.848 17.789 30.2083 17.414 29.7366C17.0389 29.2649 16.5303 29 16 29Z" fill="url(#paint5_linear_1200_4240)"/>
<defs>
<linearGradient id="paint0_linear_1200_4240" x1="22.0526" y1="41.5522" x2="8.67653" y2="9.54169" gradientUnits="userSpaceOnUse">
<stop offset="0.17" stop-color="#2C89FF"/>
<stop offset="1" stop-color="#70FEDC"/>
</linearGradient>
<linearGradient id="paint1_linear_1200_4240" x1="15.7523" y1="43.0212" x2="3.31088" y2="13.1669" gradientUnits="userSpaceOnUse">
<stop offset="0.17" stop-color="#2C89FF"/>
<stop offset="1" stop-color="#70FEDC"/>
</linearGradient>
<linearGradient id="paint2_linear_1200_4240" x1="9.99148" y1="46.0435" x2="-5.78195" y2="14.9852" gradientUnits="userSpaceOnUse">
<stop offset="0.17" stop-color="#2C89FF"/>
<stop offset="1" stop-color="#70FEDC"/>
</linearGradient>
<linearGradient id="paint3_linear_1200_4240" x1="12.5952" y1="44.699" x2="-3.18349" y2="13.6429" gradientUnits="userSpaceOnUse">
<stop offset="0.17" stop-color="#2C89FF"/>
<stop offset="1" stop-color="#70FEDC"/>
</linearGradient>
<linearGradient id="paint4_linear_1200_4240" x1="24.0476" y1="39.9926" x2="8.27043" y2="8.93774" gradientUnits="userSpaceOnUse">
<stop offset="0.17" stop-color="#2C89FF"/>
<stop offset="1" stop-color="#70FEDC"/>
</linearGradient>
<linearGradient id="paint5_linear_1200_4240" x1="19.6196" y1="41.6594" x2="3.84307" y2="10.605" gradientUnits="userSpaceOnUse">
<stop offset="0.17" stop-color="#2C89FF"/>
<stop offset="1" stop-color="#70FEDC"/>
</linearGradient>
</defs>
</svg>
